<?xml version="1.0" standalone="no"?>
<!DOCTYPE svg PUBLIC "-//W3C//DTD SVG 1.1//EN" "http://www.w3.org/Graphics/SVG/1.1/DTD/svg11.dtd" >
<svg xmlns="http://www.w3.org/2000/svg">
<metadata></metadata>
<defs>
<font id="pistilliregular" horiz-adv-x="1271" >
<font-face units-per-em="2048" ascent="1638" descent="-410" />
<missing-glyph horiz-adv-x="362" />
<glyph unicode="&#xfb01;" horiz-adv-x="1456" d="M20 0v12q60 0 94.5 9t52 36t22 59.5t4.5 96.5v850h-121v14h121v37q0 65 2.5 101.5t12.5 83.5t30.5 79.5t57.5 70t93 75.5q177 118 438 118q195 0 314 -74.5t119 -197.5q0 -23 -5.5 -48.5t-20 -54.5t-37 -51.5t-60.5 -37.5t-86 -15q-89 0 -152 57.5t-63 135.5q0 28 9 57 t29 58.5t60.5 48t95.5 18.5q42 0 92 -12q-32 49 -97 75.5t-136 26.5q-64 0 -111 -20q-39 -16 -69 -39t-48 -51.5t-29.5 -56.5t-17 -64t-7 -63.5t-1.5 -65.5v-191h656v-864q0 -64 4.5 -97t22.5 -59.5t52.5 -35.5t94.5 -9v-12h-1416zM606 213q0 -41 1.5 -65.5t8 -53t19 -43.5 t35.5 -25t57 -10t57.5 10.5t36 25t18.5 43.5t7.5 52.5t1.5 65.5v655q0 121 -31 158t-143 37h-68v-850z" />
<glyph unicode="&#xfb02;" horiz-adv-x="1454" d="M20 0v12q49 0 80 7t50.5 19.5t29 39t12.5 55.5t3 80v850h-121v14h121v70q0 55 3 95t12.5 93.5t32.5 96.5t58 73q135 113 352 113q106 0 246.5 -21.5t181.5 -21.5q32 0 179 10v-1368v-43q0 -44 4.5 -69t21.5 -49t53 -34t95 -10v-12h-1414zM608 174q0 -37 1 -57.5t5.5 -41 t12 -30t22.5 -17.5t35 -10t51 -2q74 0 93.5 31.5t19.5 122.5v1180v71q0 60 -12 99t-50 67q-21 15 -53 15q-34 0 -58 -16t-36.5 -38.5t-20 -58.5t-9 -64t-1.5 -67v-66v-215h92v-14h-92v-889z" />
<glyph unicode="&#xfb03;" horiz-adv-x="2076" d="M20 0v12q49 0 80 7t50.5 19.5t29 39t12.5 55.5t3 80v850h-121v14h121q0 63 3 108.5t15 102.5t34 100t62.5 87t96.5 77q121 70 268 70q184 0 317 -109q95 64 216 96.5t243 32.5q195 0 312.5 -74.5t117.5 -197.5q0 -23 -5.5 -48.5t-20 -54.5t-37 -51.5t-60.5 -37.5t-86 -15 q-89 0 -152 57.5t-63 135.5q0 28 9 57t29.5 58.5t61 48t95.5 18.5q42 0 92 -12q-32 49 -97.5 75.5t-136.5 26.5q-63 0 -110 -20q-56 -24 -92.5 -60.5t-52 -85t-20.5 -89t-5 -97.5v-199h653v-864q0 -64 4.5 -97t22.5 -59.5t52.5 -35.5t94.5 -9v-12h-2036zM606 211 q0 -41 1 -64t6.5 -52.5t16 -44t30.5 -25.5t49 -11q30 0 50 9t31.5 22t17 41.5t6.5 54t1 72.5v850h-209v-852zM606 1077h209v309q0 108 -9 146.5t-46 62.5q-23 15 -45 15q-36 0 -59.5 -19t-33.5 -56t-13 -70t-3 -83v-305zM1229 213q0 -45 1.5 -69.5t7.5 -53t18.5 -42t35 -23 t56.5 -9.5q75 0 97.5 43.5t22.5 153.5v655q0 124 -30.5 159.5t-143.5 35.5h-65v-850z" />
<glyph horiz-adv-x="0" />
<glyph horiz-adv-x="682" />
<glyph unicode=" "  horiz-adv-x="362" />
<glyph unicode="&#x09;" horiz-adv-x="362" />
<glyph unicode="&#xa0;" horiz-adv-x="362" />
<glyph unicode="!" horiz-adv-x="675" d="M82 1331q0 121 67 204t187 83t187 -83t67 -204q0 -129 -135 -375l-39 -71q-35 -65 -52 -130.5t-19.5 -108t-2.5 -122.5h-12q0 113 -14 190.5t-64 170.5l-39 71q-131 239 -131 375zM100 229q0 98 69 166t167 68t167.5 -68.5t69.5 -165.5q0 -98 -70 -166.5t-167 -68.5 q-98 0 -167 68.5t-69 166.5z" />
<glyph unicode="&#x22;" horiz-adv-x="509" d="M82 1501q0 96 72 96q73 0 73 -96q0 -25 -3.5 -45t-7.5 -31t-19 -53q-37 -110 -37 -180h-13q0 79 -34 180q-3 7 -8 21t-6.5 19t-5 15t-4.5 14.5t-3 12.5t-2.5 14.5t-1 14.5t-0.5 18zM276 1501q0 96 72 96q39 0 56.5 -27.5t17.5 -68.5q0 -10 -0.5 -18t-1 -14.5t-2.5 -14.5 t-3 -12.5t-4.5 -14.5t-5 -15t-6.5 -19t-8 -21q-37 -110 -37 -180h-12q0 76 -35 180q-3 7 -8 21t-6.5 19t-5 15t-4.5 14.5t-3 12.5t-2.5 14.5t-1 14.5t-0.5 18z" />
<glyph unicode="#" horiz-adv-x="1087" d="M12 553l6 18h392l55 203h-393l4 12h391l100 365h19l-101 -365h195l100 365h19l-101 -365h377v-12h-381l-55 -201h371v-20h-379l-101 -365h-20l106 365h-198l-103 -365h-18l102 365h-387zM426 571h192l58 203h-197z" />
<glyph unicode="$" horiz-adv-x="1306" d="M55 358q0 92 61 158t158 66q35 0 68.5 -10.5t66.5 -34t53.5 -69.5t20.5 -108q0 -58 -19.5 -101t-53 -67t-73.5 -35.5t-85 -11.5q-6 0 -14 1t-11 1q49 -62 132.5 -94.5t181.5 -34.5v615l-47 22q-173 81 -232 121q-121 81 -146 192q-7 34 -7 72q0 82 24.5 152t62 118 t94 89.5t109.5 67t119 49.5l23 8v166h16v-162q52 12 131 12h45v150h19v-150q102 -13 207 -63t145 -95q53 -56 53 -137q0 -70 -46.5 -126t-131.5 -56q-76 0 -132 55.5t-56 143.5q0 73 52 118t134 45q-3 3 -9.5 8.5t-28.5 20.5t-46 27t-62.5 23.5t-78.5 15.5v-553 q23 -10 72 -31.5t82 -36t82 -40t82 -48t70.5 -56t60 -68t37.5 -79.5t15 -94q0 -85 -34 -168t-96 -153.5t-158.5 -121t-212.5 -67.5v-217h-19v215q-30 -6 -119 -6q-16 0 -35 1t-22 1v-211h-16v213q-115 0 -211 41q-130 54 -202.5 137.5t-72.5 179.5zM375 1300q0 -41 13 -77.5 t29 -59t43.5 -45t42 -31.5t38.5 -22v438q-47 -14 -81.5 -42t-51.5 -59.5t-25 -57.5t-8 -44zM557 16q16 -2 66 -2q82 0 110 11v516q-31 17 -97 47.5t-79 36.5v-609zM557 1059l176 -84v549h-28q-96 0 -148 -17v-448zM752 27q190 49 190 266q0 27 -5.5 51t-13 42t-22 36 t-25.5 29.5t-30.5 25.5t-31 21t-33 19.5t-29.5 17.5v-508z" />
<glyph unicode="%" horiz-adv-x="1277" d="M72 16l1038 1581q-124 -124 -260 -124q-118 0 -209 40q61 -92 61 -219q0 -88 -33 -161.5t-82.5 -116t-100.5 -65.5t-93 -23q-43 0 -90.5 21t-93 61.5t-75.5 111.5t-30 160q0 72 21 133.5t54.5 103t75.5 71.5t83.5 43.5t79.5 13.5q31 0 59.5 -7t48 -17t38.5 -24.5 t29 -24.5t20.5 -22.5t11.5 -13.5q120 -53 221 -53q58 0 112 22t99.5 63.5t70 69.5t56.5 70h16l-1116 -1704zM307 1116q0 -54 6.5 -90t25.5 -60t52 -24q34 0 55 23t31.5 78.5t14 96t7.5 126.5q1 15 1 22q4 94 4 135q0 102 -18 155.5t-66 53.5q-32 0 -51.5 -20.5t-30 -75.5 t-14 -93t-8.5 -131q0 -5 -0.5 -8.5t-0.5 -7.5q-1 -24 -4.5 -86.5t-3.5 -93.5zM518 348q0 94 40.5 180.5t112 140.5t154.5 54q119 0 205 -98t86 -252q0 -92 -34 -167t-84 -116.5t-100 -63.5t-89 -22q-45 0 -93.5 21t-94 60.5t-74.5 108.5t-29 154zM723 201q0 -88 17.5 -134.5 t64.5 -46.5q28 0 46.5 16.5t34 63.5t22.5 140.5t7 238.5q0 73 -6.5 121t-25.5 79.5t-52 31.5q-61 0 -82 -98q-12 -57 -20 -240q0 -11 -3 -76.5t-3 -95.5z" />
<glyph unicode="&#x26;" horiz-adv-x="1947" d="M72 362q0 160 107 296t315 225q-107 156 -107 315q0 114 59.5 215.5t160 163t214.5 61.5q50 0 97 -3.5t103 -12.5t101 -27t84 -44t60.5 -67t21.5 -93q0 -104 -88 -195.5t-244 -146.5q131 -204 267 -347q62 207 175 325t240 118q98 0 170 -66t72 -182q0 -100 -65.5 -172 t-169.5 -72q-112 0 -173 68.5t-61 159.5q0 35 10.5 68t23 51.5t23.5 33t11 15.5q-134 -56 -232 -341q-1 -4 -4 -12l-4 -12q49 -54 101.5 -104.5t118.5 -105t133 -87.5t120 -33q22 0 44.5 6.5t49 22.5t43.5 51.5t17 85.5q0 12 -2 32.5t-2 27.5h14q6 -38 6 -74 q0 -73 -23.5 -148.5t-66.5 -141t-99 -117t-126.5 -81.5t-143.5 -30q-106 0 -205 60.5t-219 178.5q-194 -258 -473 -258q-196 0 -325 111t-129 282zM383 745q0 -78 62 -195t137 -212q59 -75 139.5 -142t128.5 -67q8 0 16.5 2t17 7t15 9t16 13t14.5 14t14.5 16.5t13.5 16 t14 17.5t12 16q-222 242 -481 626q-3 -1 -17 -6.5t-17.5 -7t-16 -7.5t-16.5 -9t-13.5 -9t-13 -11.5t-10 -13.5t-9 -16t-4.5 -18.5t-2 -22.5zM707 1546q0 -76 86.5 -232.5t154.5 -250.5q17 6 34.5 14t39.5 32t22 52q0 65 -61 204.5t-102 195.5q-48 63 -90 63q-29 0 -56.5 -22 t-27.5 -56z" />
<glyph unicode="'" horiz-adv-x="577" d="M43 1397q0 80 60 138t155 58q26 0 54.5 -5.5t64 -22.5t62.5 -43.5t46 -75t19 -111.5q0 -70 -21.5 -141t-62.5 -123q-88 -113 -285 -127v14q45 5 78 11.5t74 21.5t75 43.5t58 69.5q18 28 23.5 60.5t5.5 92.5q-31 -29 -78.5 -46t-98.5 -17q-101 0 -165 62.5t-64 140.5z" />
<glyph unicode="(" horiz-adv-x="739" d="M74 797q0 96 25.5 209.5t76 233t119.5 229t163.5 204t200.5 152.5l5 -13q-81 -48 -146 -143t-103 -200.5t-63.5 -224.5t-35 -211t-9.5 -165v-75q0 -717 350 -998l-6 -6q-151 86 -266 211.5t-180.5 263t-97.5 271.5t-33 262z" />
<glyph unicode=")" horiz-adv-x="739" d="M74 1812l4 13q106 -58 201 -152.5t164 -204t120.5 -229t77 -233t25.5 -209.5q0 -101 -19.5 -206.5t-64 -219.5t-110 -217t-165 -199t-221.5 -166l-6 6q350 281 350 998v75q0 73 -9 165t-34.5 211t-63.5 224.5t-103 200.5t-146 143z" />
<glyph unicode="*" horiz-adv-x="679" d="M53 1303q0 39 20.5 54t41.5 15q25 0 91.5 -25.5t102.5 -25.5h6q-29 29 -79.5 53t-79.5 44.5t-29 54.5q0 23 15.5 40t37.5 17q32 0 50 -19t25 -45t25 -64.5t46 -66.5q-2 53 -20.5 112t-18.5 89q0 57 59 57q51 0 51 -57q0 -21 -23.5 -86.5t-25.5 -114.5q34 40 61 92.5 t44 77.5t43 25q21 0 41 -17.5t20 -42.5q0 -30 -19 -48.5t-45.5 -26.5t-65.5 -27.5t-67 -46.5h7q36 0 103.5 25.5t92.5 25.5q21 0 40.5 -15t19.5 -54q-1 -28 -23 -40t-39 -12q-22 0 -36.5 8t-53.5 20.5t-113 20.5q28 -27 67 -46.5t65.5 -27.5t45.5 -26.5t19 -48.5 q0 -25 -20 -42t-41 -17q-28 0 -44 23.5t-42.5 76t-61.5 94.5q2 -50 25.5 -114t23.5 -87q0 -22 -11.5 -39.5t-39.5 -17.5q-59 0 -59 57q0 32 18.5 88.5t20.5 112.5q-27 -25 -44.5 -62t-24.5 -64t-26 -47.5t-51 -20.5q-23 0 -38 16t-15 39q0 34 27.5 55t78.5 46t82 52 q-56 -6 -92.5 -15t-48 -16.5t-25.5 -12.5t-32 -5q-17 0 -39 12t-23 40z" />
<glyph unicode="+" horiz-adv-x="1165" d="M10 594v129h504v512h127v-512h514v-131h-512v-516h-125v518h-508z" />
<glyph unicode="," horiz-adv-x="643" d="M90 244q0 80 60 138t155 58q26 0 54.5 -5.5t64 -22.5t62.5 -43.5t46 -75t19 -111.5q0 -70 -21.5 -141t-62.5 -123q-88 -113 -285 -127v14q45 5 78 11.5t74 21.5t75 43.5t58 69.5q18 28 23.5 60.5t5.5 92.5q-31 -29 -78.5 -46t-98.5 -17q-101 0 -165 62.5t-64 140.5z" />
<glyph unicode="-" horiz-adv-x="636" d="M115 516v96h403v-96h-403z" />
<glyph unicode="." horiz-adv-x="636" d="M80 242q0 98 68.5 167.5t166.5 69.5q100 0 170 -69.5t70 -167.5t-70 -168t-170 -70q-98 0 -166.5 69.5t-68.5 168.5z" />
<glyph unicode="/" horiz-adv-x="841" d="M2 12l829 1602l9 -8l-830 -1600z" />
<glyph unicode="0" horiz-adv-x="1292" d="M92 737q0 118 21.5 230t67 211.5t109.5 173.5t156 117.5t201 43.5t200.5 -43.5t155.5 -117.5t109 -173.5t66.5 -211t21.5 -230.5t-21.5 -229t-66.5 -206.5t-109 -168t-155.5 -112.5t-200.5 -41t-200.5 41.5t-156 113t-110 168t-67 206.5t-21.5 228zM469 737 q0 -27 0.5 -62t1 -68.5t1.5 -68.5t2 -64.5t1.5 -52.5t0.5 -37l1 -13q6 -375 170 -375q32 0 58 13t42.5 31.5t29 52t18.5 60.5t10.5 72t5.5 72t2 74q10 257 10 366q0 84 -2.5 179t-4.5 148l-3 54q-1 44 -1.5 72t-4.5 72t-10.5 73t-18.5 62.5t-29 53t-43 33t-59 13.5 q-32 0 -58.5 -18t-43.5 -44t-30 -64.5t-19.5 -71.5t-11 -73t-5.5 -60t-2 -42q-8 -211 -8 -387z" />
<glyph unicode="1" d="M246 0v12q69 0 109 10.5t61.5 41t28 71.5t6.5 115v817q0 120 -27 155t-119 35v13q124 28 274 95.5t242 154.5v-1270q0 -74 6.5 -115t28 -71.5t61.5 -41t109 -10.5v-12h-780z" />
<glyph unicode="2" horiz-adv-x="1277" d="M117 178q0 129 37 207q78 167 221 238l69 34h-2q51 25 78.5 39.5t63 36.5t52.5 39t38 43t30 53t18 65.5t12 84t3 104.5q0 86 -16 151.5t-40.5 102.5t-58.5 60t-63.5 30t-62.5 7q-93 0 -168 -60q-32 -25 -51 -47.5t-33.5 -65.5t-14.5 -102q57 64 146 64t136.5 -58 t47.5 -131q0 -49 -20 -87t-51.5 -59t-65 -31.5t-64.5 -10.5q-83 0 -145.5 59t-62.5 168q0 89 45 174q24 44 53.5 78t76 66.5t114.5 50.5t153 18q149 0 272 -48t196 -137.5t73 -203.5q0 -42 -9 -80t-21.5 -67t-36.5 -57t-43.5 -46.5t-53 -38.5t-53.5 -31t-58 -25t-54 -19.5 t-53 -17t-44 -13.5l-172 -56l-60 -19.5t-58 -22.5t-61 -30t-55.5 -38.5t-55 -52t-47 -67t-42.5 -85.5q-25 -70 -25 -180v-25q88 246 447 246q37 0 195.5 -10t176.5 -10q57 0 96.5 15.5t60.5 46t30.5 66t11.5 85.5h12v-72q-1 -63 -6.5 -114.5t-22 -117t-43.5 -114.5 t-76.5 -93t-115.5 -67q-56 -20 -111 -20q-60 0 -117.5 25t-102.5 61t-88 72.5t-91.5 61.5t-95.5 25q-60 0 -103 -44t-43 -109l5 -60l-17 -2q-16 73 -16 168z" />
<glyph unicode="3" horiz-adv-x="1267" d="M102 346q0 108 59 177t154 69q90 0 147.5 -52.5t57.5 -136.5q0 -30 -9 -61.5t-29 -65t-60.5 -54.5t-95.5 -21q-73 0 -127 41q15 -56 44.5 -99t63.5 -68.5t76 -41.5t78.5 -21.5t75.5 -5.5q101 0 157 53q90 85 90 367q0 172 -32.5 256.5t-120.5 118.5q-42 12 -109 12 q-13 0 -36.5 -1t-34.5 -1v23q28 -7 71 -7q109 0 158 54q45 53 45 225q0 113 -13 188t-39.5 113t-58 52t-77.5 14q-184 0 -222 -140q28 21 74 21q28 0 56 -8.5t57 -27.5t47 -57.5t18 -91.5q0 -43 -13 -77t-32 -53.5t-44.5 -33t-47.5 -18t-43 -4.5q-83 0 -135.5 57t-52.5 142 q0 40 12.5 81t43.5 83t76 75t116 53.5t159 20.5q131 0 238 -39.5t172 -117t65 -179.5q0 -27 -4 -52t-23.5 -66t-52.5 -75.5t-98 -73.5t-153 -67q112 -19 196 -59t127 -81.5t68.5 -92.5t31 -83t5.5 -63q0 -91 -36.5 -167.5t-98 -128.5t-144 -88.5t-173 -53t-185.5 -16.5 q-192 0 -315.5 104.5t-123.5 249.5z" />
<glyph unicode="4" horiz-adv-x="1288" d="M35 430l610 1036h275v-993h141q18 0 32.5 6t22.5 13.5t16 24t11.5 27.5t10.5 36t11 38h21l-45 -188h-221v-180q0 -74 6 -115t27.5 -71.5t61.5 -41t109 -10.5v-12h-780v12q46 0 78 4.5t55.5 17t36.5 29t20.5 45.5t10 60.5t2.5 81.5v180h-512zM80 473h467v793z" />
<glyph unicode="5" horiz-adv-x="1277" d="M104 344q0 113 65 179.5t150 66.5q83 0 139 -51.5t56 -143.5q0 -25 -5.5 -50.5t-19.5 -52t-36 -47t-59 -33.5t-83 -13q-94 0 -133 53q0 -37 26.5 -80t71.5 -80.5t114.5 -62.5t146.5 -25q52 0 90 20.5t68 71.5t45.5 145.5t15.5 233.5q0 227 -41 307q-63 127 -209 127 q-78 0 -161 -65t-122 -146l-12 4q28 105 56 243t45 240.5t31.5 193.5t16.5 100q122 -29 328 -29q214 0 385 33q-44 -170 -156 -249t-307 -79q-94 0 -280 31l-86 -420q55 72 124.5 114t130.5 55t136 13q102 0 197.5 -32.5t169.5 -90t118.5 -143t44.5 -184.5q0 -112 -52 -209 t-137.5 -161.5t-195 -101t-225.5 -36.5q-129 0 -217 36.5t-170 133.5q-64 76 -64 184z" />
<glyph unicode="6" horiz-adv-x="1314" d="M111 682q0 128 32 251t92.5 227t141.5 183t185 123.5t216 44.5q147 0 235.5 -78t88.5 -188q0 -90 -51 -141t-138 -51q-53 0 -93 19t-59.5 47.5t-28.5 54t-9 47.5q0 24 9.5 52.5t29.5 58.5t59 49.5t90 19.5q41 0 62 -8q-16 43 -66.5 74.5t-122.5 31.5q-131 0 -192 -96 q-55 -88 -79 -273t-24 -368v-29q19 43 41.5 76t57.5 63t85.5 46t114.5 16q186 0 302 -107.5t116 -314.5q0 -228 -145 -376t-361 -148q-264 0 -426.5 191t-162.5 503zM489 487q0 -135 13.5 -231t40 -150.5t61 -79t80.5 -24.5q93 0 133 76q39 78 39 420q0 188 -22 278 q-15 58 -51.5 94.5t-80.5 36.5q-36 0 -75 -24q-138 -84 -138 -396z" />
<glyph unicode="7" horiz-adv-x="1259" d="M178 958q45 273 53 484h15l-2 -94q67 81 134.5 114t166.5 33q83 0 177.5 -27.5t175.5 -54.5t132 -27q57 0 78 54h14q0 -49 -5 -94t-12 -79.5t-22.5 -74t-27 -64.5t-36.5 -65.5t-40 -63t-48.5 -70.5t-51.5 -75q-199 -295 -199 -580q0 -141 47 -274h-487q-2 25 -2 72 q0 143 38 249t118 199t231 215l215 174q122 100 182 199q59 97 70 227q-80 -113 -162 -162t-182 -49q-70 0 -199 33t-174 33q-100 0 -142 -74q-14 -23 -21.5 -54t-11.5 -62t-7 -42h-15z" />
<glyph unicode="8" horiz-adv-x="1312" d="M76 360q0 106 69 189q36 44 82.5 76t79.5 46t92 34q-106 71 -154 152t-48 190q0 88 29 164t78 128.5t113 90t133 55.5t140 18q125 0 215 -53q59 -35 99.5 -74.5t58.5 -75t24.5 -61t6.5 -49.5q0 -53 -28 -110.5t-83 -94.5q-65 -47 -119 -72q33 -15 53.5 -25t59.5 -32.5 t65 -43.5t58 -54.5t51.5 -69t33 -84t13.5 -102.5q0 -96 -40 -198t-122 -173q-85 -74 -201 -111.5t-237 -37.5q-132 0 -251 47.5t-195 135.5t-76 195zM344 381q0 -153 47.5 -255t140.5 -124q27 -6 74 -6q145 0 213 63q36 34 54 99.5t18 130.5q0 31 -6 59.5t-14.5 51 t-25.5 44.5t-30.5 37.5t-39 34t-41.5 29t-47.5 26.5t-47 23.5t-50 23t-48.5 21.5l-107 49q-90 -98 -90 -307zM510 1229q0 -59 19 -104.5t62 -79.5t69.5 -49t82.5 -41q15 -7 23 -11q10 -5 55 -18q1 1 10 6t11 7t10 9t11 14.5t9 19.5t9 28.5t6 38t4.5 50t1.5 62.5 q0 129 -27 204t-92 105q-40 19 -80 19q-52 0 -90.5 -26.5t-57.5 -68.5t-27.5 -83t-8.5 -82z" />
<glyph unicode="9" horiz-adv-x="1290" d="M100 987q0 228 145 376t361 148q264 0 427 -191t163 -503q0 -214 -86 -404t-241 -307.5t-341 -117.5q-147 0 -235 77.5t-88 188.5q0 90 50.5 141t137.5 51q53 0 93 -18.5t60 -47t29 -54t9 -47.5q0 -24 -9.5 -52.5t-30 -58.5t-59.5 -50t-90 -20q-40 0 -61 8q16 -44 66 -75 t122 -31q132 0 193 96q55 88 78.5 272t23.5 369v29q-19 -43 -41.5 -76t-57.5 -63t-85.5 -46t-114.5 -16q-186 0 -302 107.5t-116 314.5zM451 1001q0 -188 22 -278q15 -58 51 -94.5t80 -36.5q37 0 76 24q137 84 137 396q0 135 -13.5 231t-40 150.5t-61.5 79t-81 24.5 q-92 0 -132 -76q-38 -76 -38 -420z" />
<glyph unicode=":" horiz-adv-x="620" d="M84 205q0 80 65.5 138t157.5 58t158.5 -58t66.5 -138q0 -82 -66.5 -140.5t-158.5 -58.5t-157.5 58.5t-65.5 140.5zM84 883q0 82 65.5 140t157.5 58t158.5 -58t66.5 -140q0 -80 -66.5 -138.5t-158.5 -58.5t-157.5 58.5t-65.5 138.5z" />
<glyph unicode=";" horiz-adv-x="632" d="M84 244q0 80 60 138t155 58q26 0 54.5 -5.5t64 -22.5t62.5 -43.5t46 -75t19 -111.5q0 -70 -21.5 -141t-62.5 -123q-88 -113 -285 -127v14q45 5 78 11.5t74 21.5t75 43.5t58 69.5q18 27 23 59.5t5 93.5q-66 -63 -176 -63q-101 0 -165 62.5t-64 140.5zM96 883 q0 82 65.5 140t157.5 58t159 -58t67 -140q0 -80 -67 -138.5t-159 -58.5t-157.5 58.5t-65.5 138.5z" />
<glyph unicode="&#x3c;" horiz-adv-x="1257" d="M4 528v125l1143 547v-141l-975 -475l975 -447v-133z" />
<glyph unicode="=" horiz-adv-x="1150" d="M115 369v112h991v-112h-991zM115 645v113h991v-113h-991z" />
<glyph unicode="&#x3e;" horiz-adv-x="1259" d="M111 4v133l972 447l-972 475v141l1142 -547v-125z" />
<glyph unicode="?" horiz-adv-x="1382" d="M96 1182q0 120 66 209q165 223 452 223q190 0 340 -45.5t242 -141.5t92 -229q0 -48 -15 -90.5t-37.5 -74t-60.5 -61.5t-73 -49.5t-87 -41.5t-89.5 -35t-94 -32.5t-88.5 -31.5q-102 -39 -136 -96t-34 -158h-12q-6 40 -6 72q0 49 25.5 110t62.5 123t74 128.5t62.5 149 t25.5 163.5q0 130 -67.5 222.5t-190.5 92.5q-58 0 -104.5 -15t-74 -36t-46.5 -47.5t-26.5 -47t-8.5 -36.5q27 12 65 12q93 0 161.5 -61.5t68.5 -175.5q0 -115 -69 -179.5t-169 -64.5q-36 0 -76.5 13.5t-80 40.5t-65.5 76.5t-26 113.5zM383 231q0 94 66 161t161 67 q94 0 161 -67t67 -161t-67 -160.5t-161 -66.5q-95 0 -161 66.5t-66 160.5z" />
<glyph unicode="@" horiz-adv-x="1796" d="M78 449q0 127 33.5 251t105 239t172.5 202t248.5 139.5t320.5 52.5q127 0 234 -27t184.5 -73t138 -110t99 -133.5t63.5 -149t35 -152t10 -145.5q0 -151 -43.5 -277t-133.5 -206t-210 -80q-227 0 -293 286q-1 6 -2 8q-17 -75 -35 -124.5t-45.5 -89.5t-66 -59t-90.5 -19 q-69 0 -136 43.5t-117.5 115t-82 169t-31.5 200.5q0 113 29.5 212.5t74.5 166t100 115t106 70.5t92 22q43 0 77.5 -12t58.5 -35t39 -44t31 -51v111h351q-15 -131 -15 -213v-516q0 -36 1 -59t6.5 -62.5t15.5 -63.5t31 -42.5t51 -18.5q48 0 88 36t63.5 87.5t40 112.5t23 106.5 t6.5 73.5q-1 76 -6 137t-24 144t-51 150.5t-91.5 139.5t-140.5 127q-83 56 -196.5 85.5t-235.5 29.5q-261 0 -449 -117q-167 -105 -252.5 -294.5t-85.5 -432.5q0 -420 303 -653q87 -68 208.5 -102.5t248.5 -34.5q145 0 258 45q109 44 197 135l8 -10q-158 -187 -473 -187 q-41 0 -82.5 3t-102.5 13.5t-117.5 28.5t-123 50.5t-123.5 76t-114 109.5t-101 147q-82 152 -82 353zM817 309q0 -280 74 -280q39 0 70.5 64t48 154.5t25.5 170.5t9 129v155q0 161 -29.5 257t-92.5 96q-28 0 -49 -29t-31.5 -66.5t-16.5 -85.5t-7 -73.5t-1 -42.5v-449z" />
<glyph unicode="A" horiz-adv-x="1822" d="M10 0v12q51 0 95.5 13.5t79 35t65.5 57.5t53.5 71.5t45.5 87t38.5 93.5t34.5 101l375 1133h340l479 -1452q27 -82 69 -111t127 -29v-12h-911v12h88l2 2q63 0 93 18t30 66q0 13 -2 28.5t-7.5 34t-9 31.5t-11.5 36.5t-11 33.5l-129 404h-440q-1 -4 -12.5 -38t-14 -41 t-12.5 -38t-12.5 -41t-10.5 -37.5t-10.5 -41t-7.5 -37t-7 -40t-3.5 -36t-1.5 -37.5q0 -101 45 -168q23 -35 54.5 -56.5t72 -30t67 -10.5t70.5 -2v-12h-711zM508 682h430l-205 680z" />
<glyph unicode="B" horiz-adv-x="1742" d="M35 0v12h12q55 0 92.5 5t64 18.5t41 29t22.5 46t10 60t2 79.5v1104q0 50 -2 79.5t-10 59.5t-22.5 46t-41 29t-64 18t-92.5 5h-12v13h887q88 0 170 -9.5t168 -36t149 -67t103 -107.5t40 -153q0 -93 -45 -164q-26 -41 -72 -76t-94 -57t-103 -40t-92.5 -26.5t-70.5 -13.5 l62 -6q391 -39 497 -297q29 -71 29 -148q0 -113 -64 -202q-47 -66 -106 -107.5t-138.5 -61.5t-155.5 -26t-193 -6h-971zM748 199q0 -54 3.5 -85t11 -53.5t26 -32t41 -13t63.5 -3.5q112 0 153 27.5t64 118.5q23 98 23 264q0 278 -76 362q-55 62 -240 62h-69v-647zM748 860 h104q37 0 59.5 1t48.5 6t41 14.5t31 25.5t24.5 40t16 58.5t10 80t2.5 104.5q0 130 -14 246q-4 42 -22 71.5t-41.5 45.5t-62.5 25t-71 11t-81 2h-45v-731z" />
<glyph unicode="C" horiz-adv-x="1710" d="M82 750q0 94 24 196t71.5 203.5t127 193.5t180.5 152q78 47 190 88t220 41q69 0 130.5 -14t104.5 -34t81 -39.5t77 -33.5t76 -14q42 0 72 10.5t46.5 32t22.5 34t13 36.5q1 4 2 6h12v-772h-12q-6 72 -39.5 177t-85 215t-128 205t-157.5 134q-31 15 -86.5 29t-108.5 14 q-67 0 -106 -27q-205 -144 -205 -668v-241q0 -75 6.5 -145.5t22 -150.5t45.5 -145.5t73 -119.5t109 -84.5t148 -30.5q146 0 272 72q37 22 70 49.5t57.5 52.5t47 62.5t36.5 61.5t29 67.5t22 63.5t17.5 67.5t13 61t10.5 60.5q1 7 2 11t2 10.5t2 11.5h13q-12 -82 -24 -139.5 t-37 -131t-57.5 -127.5t-86 -108t-123.5 -92q-130 -71 -336 -71q-131 0 -259 29.5t-220 82.5q-101 58 -176.5 140t-118 171t-62.5 176t-20 171z" />
<glyph unicode="D" horiz-adv-x="1816" d="M27 0v12h14q47 0 81 4.5t59 11.5t41 22.5t26 31.5t14.5 44.5t6 54.5t1.5 69v1104q0 51 -2 79.5t-9.5 59.5t-21.5 46t-40 29t-63.5 18.5t-92.5 4.5h-14v13h870q73 0 119 -1.5t112 -9.5t111.5 -22.5t103 -42.5t103 -67.5t95 -99t93.5 -136.5q101 -177 101 -426 q0 -133 -30.5 -259.5t-84.5 -220.5q-30 -52 -64.5 -94.5t-67 -73.5t-74.5 -55.5t-75.5 -40t-81 -26.5t-79.5 -16.5t-83.5 -8.5t-80.5 -3.5t-82 -0.5h-905zM741 250q0 -64 3 -99.5t11 -66.5t26.5 -44.5t46.5 -20.5t73 -7q51 0 104.5 8.5t75.5 18.5q33 16 56 43t38.5 76.5 t24.5 102t13.5 146t6 181t1.5 231.5q0 318 -14 450t-72 216q-45 65 -114.5 85.5t-160.5 20.5h-119v-1341z" />
<glyph unicode="E" horiz-adv-x="1611" d="M41 0v12h12q55 0 92.5 5t64 18.5t41 29t22.5 46t10 60t2 79.5v1104q0 50 -2 79.5t-10 59.5t-22.5 46t-41 29t-64 18t-92.5 5h-12v13h1389v-615h-13q0 91 -24 177.5t-85 174.5t-153 154q-82 59 -166.5 77.5t-232.5 18.5v-731q146 0 228.5 53.5t133.5 182.5q6 19 13.5 66.5 t7.5 92.5h14v-806h-14q0 44 -7.5 92.5t-13.5 64.5q-51 131 -133.5 185.5t-228.5 54.5v-596q0 -69 3 -109t8.5 -68t21 -39.5t33 -15.5t50.5 -4q178 0 248 33q88 40 148.5 86.5t110.5 121.5t77.5 187.5t34.5 268.5h12v-711h-1462z" />
<glyph unicode="F" horiz-adv-x="1511" d="M41 0v12h14q55 0 92.5 5t63.5 18.5t40.5 29t22 46.5t9.5 60t2 79v1104q0 50 -2 79t-9.5 60t-22 46t-40.5 29t-63.5 18.5t-92.5 4.5h-14v13h1389v-615h-13q0 142 -62.5 275t-199.5 231q-83 58 -168 77t-231 19v-731q147 0 230 53.5t132 182.5q23 69 23 159h12v-806h-12 q0 44 -8.5 92t-14.5 65q-49 130 -132 185t-230 55v-596q0 -43 1.5 -69t6.5 -54.5t15 -44.5t26 -31.5t41.5 -22.5t59.5 -11.5t81 -4.5h12v-12h-958z" />
<glyph unicode="G" horiz-adv-x="1841" d="M82 727q0 107 24 217t88 233.5t162 213.5q251 233 535 233q82 0 150.5 -14.5t112 -35t79 -40.5t69 -34.5t64.5 -14.5q58 0 103 35t49 100h16v-651h-12q-1 74 -29 160.5t-81 171t-122 153.5t-161.5 111.5t-190.5 42.5q-72 0 -117 -29q-70 -45 -116.5 -125t-70 -197 t-32 -240.5t-8.5 -295.5q0 -77 0.5 -124.5t4.5 -120.5t11.5 -120.5t22 -106.5t35 -98.5t52 -75.5t71.5 -57q37 -18 102 -18q78 0 130.5 21t80.5 63.5t39.5 94.5t11.5 126v283q0 81 -17 121t-65 58.5t-147 18.5v15h889v-15h-27q-54 0 -87 -12t-49 -40t-21 -59.5t-5 -86.5 v-580h-14q-5 24 -10 41.5t-20 42.5t-35 41.5t-56 28.5t-82 12q-52 0 -102 -20t-94 -48.5t-92.5 -57t-117 -48.5t-147.5 -20q-95 0 -199 29.5t-207 92t-184.5 148.5t-132.5 210.5t-51 266.5z" />
<glyph unicode="H" horiz-adv-x="2052" d="M41 0v12h14q55 0 92.5 5t63.5 18.5t40.5 29t22 46.5t9.5 60t2 79v1104q0 50 -2 79t-9.5 60t-22 46t-40.5 29t-63.5 18.5t-92.5 4.5h-14v13h948v-13h-8q-55 0 -92 -4.5t-62.5 -18.5t-39.5 -28.5t-21 -46.5t-8.5 -59.5t-1.5 -79.5v-455h540v455q0 51 -1.5 79.5t-9 59.5 t-21.5 46t-39.5 29t-63 18.5t-92.5 4.5h-6v13h948v-13h-14q-55 0 -92.5 -5t-64 -18t-41 -29t-22.5 -46t-10 -59.5t-2 -79.5v-1104q0 -50 2 -79.5t10 -60t22.5 -46t41 -29t64 -18.5t92.5 -5h14v-12h-948v12h6q55 0 92.5 4.5t63 18.5t39.5 29t21.5 46.5t9 60t1.5 79.5v633 h-540v-633q0 -52 1.5 -79.5t8.5 -59.5t21 -47t39.5 -29t62.5 -18.5t92 -4.5h8v-12h-948z" />
<glyph unicode="I" horiz-adv-x="1040" d="M41 0v12h12q55 0 92.5 5t64 18.5t41 29t22.5 46t10 60t2 79.5v1104q0 50 -2 79.5t-10 59.5t-22.5 46t-41 29t-64 18t-92.5 5h-12v13h958v-13h-14q-55 0 -92.5 -4.5t-63.5 -18.5t-40 -29t-21.5 -46t-9.5 -59.5t-2 -79.5v-1104q0 -43 1.5 -69t6 -54.5t14.5 -44.5t26 -31.5 t41 -22.5t59 -11.5t81 -4.5h14v-12h-958z" />
<glyph unicode="J" horiz-adv-x="1505" d="M39 375q0 125 83.5 214t201.5 89q44 0 89 -16t86 -46.5t67 -84t26 -119.5q0 -36 -12 -75.5t-38.5 -81t-80 -68.5t-125.5 -27q-86 0 -139 33q23 -57 44.5 -87t55.5 -53q27 -23 85.5 -39t111.5 -16q69 0 112 22q42 22 71.5 53.5t45.5 63t24.5 75t10.5 75.5t2 78v989 q0 50 -2 79.5t-10 59.5t-22.5 46t-41 29t-64 18t-92.5 5h-12v13h957v-13h-13q-55 0 -92.5 -4.5t-63.5 -18t-41 -29t-22.5 -46t-9.5 -60t-2 -79.5v-918q0 -39 -2.5 -66.5t-12.5 -64.5t-29 -66.5t-53 -63.5t-83 -66q-87 -59 -217.5 -94t-276.5 -35q-231 0 -373.5 108.5 t-142.5 286.5z" />
<glyph unicode="K" horiz-adv-x="1988" d="M41 0v12h12q55 0 92.5 5t64 18.5t41 29t22.5 46t10 60t2 79.5v1104q0 50 -2 79.5t-10 59.5t-22.5 46t-41 29t-64 18t-92.5 5h-12v13h936v-13h-14q-69 0 -110 -11.5t-63.5 -42t-29 -71t-6.5 -112.5v-486l264 254q58 55 80.5 77t62 65t54.5 67.5t28.5 58t13.5 64.5 q0 135 -176 137v13h691v-13q-78 -2 -160 -31t-148.5 -69t-145 -106t-132 -118.5t-127.5 -129.5l620 -936l12 -18q25 -37 37 -54t32.5 -41.5t37 -34.5t42.5 -21.5t56.5 -15.5t71.5 -4h4v-12h-936v12h11q51 0 76.5 24t25.5 56q0 65 -86 203l-309 479v-524q0 -73 6 -112.5 t28 -71t64 -43t115 -11.5h10v-12h-936z" />
<glyph unicode="L" horiz-adv-x="1529" d="M41 0v12h12q55 0 92.5 5t64 18.5t41 29t22.5 46t10 60t2 79.5v1104q0 50 -2 79.5t-10 59.5t-22.5 46t-41 29t-64 18t-92.5 5h-12v13h958v-13h-14q-55 0 -92.5 -4.5t-63.5 -18.5t-40 -29t-21.5 -46t-9.5 -59.5t-2 -79.5v-1104q0 -59 1 -92.5t5 -63.5t9.5 -43t18.5 -23 t27.5 -12t40.5 -2q138 0 205 33q70 31 121.5 65.5t98 87.5t76.5 121.5t50 166t25 223.5h14v-711h-1407z" />
<glyph unicode="M" horiz-adv-x="2076" d="M20 0v12h21q143 0 191.5 82.5t48.5 290.5v969q0 43 -1.5 69t-6 54.5t-14 44t-25.5 31t-41 22.5t-59 11.5t-81 4.5h-16v13h711l319 -1135l303 1135h666v-13h-13q-55 0 -92.5 -4.5t-63.5 -18t-41 -29t-22.5 -46t-9.5 -60t-2 -79.5v-1104q0 -43 1.5 -69t6.5 -54.5t15 -44.5 t26 -31.5t41.5 -22.5t59.5 -11.5t81 -4.5h13v-12h-914v12h13q116 0 152 49t36 189v1124l-365 -1374h-249l-412 1389v-1004q0 -106 9 -171.5t34.5 -113.5t71.5 -68t120 -20h23v-12h-535z" />
<glyph unicode="N" horiz-adv-x="1708" d="M41 0v12h20q143 0 191.5 82.5t48.5 290.5v969q0 51 -2 79.5t-9.5 59.5t-21.5 46t-40 29t-63.5 18.5t-92.5 4.5h-15v13h750l594 -1164v779q0 208 -48.5 290t-191.5 82h-20v13h534v-13h-22q-74 0 -120 -19.5t-72 -67.5t-35 -113.5t-9 -171.5v-1219h-373l-727 1409v-1024 q0 -106 9 -171.5t35 -113.5t72 -68t120 -20h22v-12h-534z" />
<glyph unicode="O" horiz-adv-x="1753" d="M78 801q0 132 39.5 256.5t112.5 226.5t170.5 179.5t220 120t253.5 42.5t254 -42.5t220.5 -120t171 -179t113.5 -226.5t40 -257q0 -165 -62.5 -317t-169 -263.5t-255 -178.5t-312.5 -67q-218 0 -402 113t-289 303t-105 410zM578 664q0 -78 1.5 -135.5t8.5 -132t19 -127.5 t33.5 -108.5t52 -90t76.5 -56.5t103 -22t103 22t76.5 56.5t52.5 89.5t34 108.5t19 128t8.5 132.5t1.5 135v137v137q0 78 -1.5 136.5t-8.5 133t-19 128t-34 109.5t-52.5 90.5t-76.5 56.5t-103 22q-50 0 -91.5 -15.5t-71 -47t-52 -69t-36.5 -91t-23 -102.5t-13 -115t-5.5 -117 t-1.5 -119v-137v-137z" />
<glyph unicode="P" horiz-adv-x="1556" d="M41 0v12h12q55 0 92.5 5t64 18.5t41 29t22.5 46t10 60t2 79.5v1104q0 71 -7.5 112t-32.5 71.5t-70 42t-122 11.5h-12v13h833q52 0 87.5 -1t85.5 -6t87 -14.5t82 -26.5t80.5 -41.5t72 -62t67.5 -84.5q65 -105 65 -229q0 -117 -69 -217t-176 -158t-228 -70q-70 -6 -123 -6 q-63 0 -151 10v-448q0 -43 1.5 -69t6.5 -54.5t15 -44.5t26 -31.5t41.5 -22.5t59.5 -11.5t81 -4.5h14v-12h-958zM754 713q70 -8 104 -8q79 0 119 32q38 29 52.5 83.5t14.5 142.5v311q-2 108 -14 169.5t-53 98.5q-55 49 -174 49h-49v-878z" />
<glyph unicode="Q" horiz-adv-x="1775" d="M78 793q0 52 8.5 111t37.5 145.5t76 165t134 163t201 146.5q186 100 339 100q151 0 332 -75.5t297 -205.5q96 -110 145.5 -246t49.5 -276q0 -65 -12.5 -133.5t-39.5 -146.5t-75 -153t-112.5 -143.5t-158.5 -128t-208 -98.5q17 -28 65 -53.5t115 -25.5q62 0 115.5 28 t86 70t50.5 87.5t18 84.5q0 30 -10 72l10 2q25 -70 25 -166q0 -214 -109 -331.5t-307 -117.5q-77 0 -155 34.5t-129.5 94t-51.5 123.5q0 38 21 62q-142 12 -281 86.5t-243.5 185.5t-169 254t-64.5 285zM606 735q0 -287 23.5 -429.5t75.5 -219.5q-7 31 -7 57q0 98 54.5 146.5 t121.5 48.5q41 0 71.5 -13.5t46 -30t26 -43t12.5 -40t4 -33.5q9 -73 33 -119q43 50 69.5 130.5t38 198t14.5 215t3 253.5q0 89 -1.5 147t-6.5 141.5t-16.5 142t-30 120t-49.5 105.5t-72 71q-43 27 -125 27q-76 0 -117 -23q-166 -92 -166 -545q-2 -188 -2 -307zM715 150 q0 -38 13.5 -68t29 -45t39 -26t31 -13t18.5 -4q30 27 68 95t38 132q0 32 -9 53.5t-24 31t-27.5 13t-25.5 3.5q-66 0 -108.5 -50t-42.5 -122z" />
<glyph unicode="R" horiz-adv-x="1761" d="M43 0v12h14q55 0 92.5 5t63.5 18.5t40.5 29t22 46.5t9.5 60t2 79v1104q0 50 -2 79t-9.5 60t-22 46t-40.5 29t-63.5 18.5t-92.5 4.5h-14v13h811q48 0 83.5 -1t94 -5.5t104.5 -12.5t102.5 -24.5t101 -39t88.5 -57t75 -78.5q56 -76 56 -169q0 -46 -17 -95 q-14 -38 -37.5 -70.5t-47 -56t-59.5 -45t-62 -34.5t-67.5 -27.5t-63 -20.5t-62 -16.5t-51.5 -13.5q6 -2 53 -12.5t70.5 -17t64.5 -19.5t74 -29t61 -35q45 -31 73.5 -72t41 -91t16.5 -90.5t4 -94.5v-199q0 -55 12 -79.5t44 -24.5q55 0 87.5 97t32.5 247q0 44 -6 78h15 q6 -27 6 -80q0 -21 -1.5 -53t-12.5 -105t-31 -117q-12 -26 -21 -42t-32 -41.5t-51 -40t-77 -26t-110 -11.5q-146 0 -250 75q-96 71 -96 279q0 25 5 120.5t5 131.5q0 57 -6 98.5t-20 69t-30.5 44t-44.5 25t-54.5 11t-67.5 2.5h-88v-586q0 -71 6.5 -112t27.5 -72t59 -42.5 t101 -11.5h25v-12h-934zM758 848h90q109 0 163.5 24t80.5 103q12 46 12 180q0 291 -51 358q-35 49 -86 63.5t-138 14.5h-71v-743z" />
<glyph unicode="S" horiz-adv-x="1509" d="M117 1102q0 124 61 231q61 108 227.5 199.5t325.5 91.5q110 0 209 -39q5 -2 22 -9t22.5 -9.5t21 -8t23 -7.5t22 -6t25 -5t25 -2.5t29.5 -1.5q59 0 94.5 18.5t39.5 73.5h14v-588h-12q0 101 -38 195.5t-132 208.5q-71 88 -161.5 127t-182.5 39q-69 0 -118 -23t-91 -84 q-33 -50 -33 -133q0 -66 26 -119.5t55 -82t84 -53.5t76 -30.5t69 -16.5q2 -1 3.5 -1.5t3.5 -1t4 -0.5l97 -23q5 -1 17 -4q33 -8 53.5 -13t63 -18t71.5 -26t70.5 -35.5t70.5 -47.5t60.5 -61.5t51 -78t32 -96t12.5 -115.5q0 -223 -164 -379q-105 -101 -205 -141.5t-240 -40.5 q-105 0 -222.5 27.5t-209 55t-131.5 27.5q-92 0 -117 -94h-12v709h12q0 -149 68.5 -291.5t181.5 -245.5q88 -81 190 -126.5t203 -45.5q61 0 109.5 19t77.5 49t48.5 69t26.5 74.5t7 71.5q0 45 -13.5 83.5t-32 65.5t-52.5 52t-59 39.5t-69 30.5t-64.5 22t-62.5 18l-118 33 q-465 126 -465 473z" />
<glyph unicode="T" horiz-adv-x="1597" d="M55 934v670h1487v-670h-12q0 102 -22 186t-74 172q-74 126 -178.5 210.5t-221.5 88.5v-1341q0 -50 2 -79t9.5 -60t22 -46.5t40.5 -29t63.5 -18.5t92.5 -5h14v-12h-959v12h13q47 0 81 4.5t59.5 11.5t41.5 22.5t26 31.5t15 44.5t6.5 54.5t1.5 69v1341q-118 -4 -221 -88 t-178 -211q-53 -87 -74.5 -171t-21.5 -187h-13z" />
<glyph unicode="U" horiz-adv-x="1734" d="M55 1591v13h959v-13h-13q-55 0 -92.5 -4.5t-63.5 -18t-41 -29t-22.5 -46t-9.5 -60t-2 -79.5v-940q0 -165 15 -221.5t79 -92.5q78 -43 223 -43q137 0 211 41q92 53 117 123t25 236v768q0 60 -1.5 95.5t-6.5 79.5t-15.5 69t-29 51.5t-46 40t-67 22t-92.5 8.5v13h532v-13 q-53 0 -92.5 -8.5t-67 -22t-46 -40t-29 -51.5t-15.5 -69t-6.5 -79.5t-1.5 -95.5v-776q0 -52 -1 -81.5t-4.5 -67.5t-11 -60.5t-20.5 -50t-33.5 -47.5t-48.5 -42.5t-67 -44.5q-130 -75 -352 -75q-121 0 -234.5 24t-189.5 66q-54 30 -91 65t-57.5 67.5t-31 79.5t-13 84.5 t-2.5 98.5v889q0 51 -2 79.5t-9.5 59.5t-21.5 46t-40 29t-63.5 18.5t-92.5 4.5h-15z" />
<glyph unicode="V" horiz-adv-x="1736" d="M20 1591v13h949v-13q-107 0 -144 -24t-37 -72q0 -20 4 -42.5t14 -60t11 -40.5l307 -1092l230 813q43 155 43 260q0 106 -43 166q-29 40 -70.5 61.5t-70.5 25.5t-78 5v13h581v-13q-44 0 -69 -4q-33 -5 -61.5 -22t-50 -45.5t-37.5 -56t-30.5 -68t-22.5 -65.5t-19 -64 q-5 -17 -7 -25l-352 -1241h-375l-428 1413q-14 49 -32 82.5t-36 52t-44 28.5t-48.5 12.5t-58.5 2.5h-25z" />
<glyph unicode="W" horiz-adv-x="2195" d="M20 1591v13h760v-13q-58 0 -84 -24.5t-26 -55.5t28 -137l234 -874l141 512l-94 418q-23 99 -44.5 128t-84.5 33v13h709v-13q-69 -3 -90 -15q-27 -16 -27 -52q0 -28 24 -138l222 -892l159 587q51 184 51 283q0 117 -73 190q-6 6 -18.5 13.5t-44 15.5t-70.5 8v13h483v-13 q-43 -3 -78.5 -19t-62.5 -46.5t-46.5 -61t-37.5 -79.5t-28.5 -83.5t-25.5 -89.5l-327 -1212h-250l-240 983l-268 -983h-223l-383 1454q-12 44 -20.5 64t-28 40t-51.5 26.5t-85 6.5z" />
<glyph unicode="X" horiz-adv-x="1837" d="M20 0v12q32 0 63.5 9t57.5 21t56.5 37.5t51.5 44.5t50.5 56.5t45.5 58.5t45 67t41 65t41.5 68t37.5 63l158 262l-412 680q-51 85 -87.5 116t-105.5 31v13h857v-13q-148 0 -148 -67q0 -8 2.5 -17t8 -21.5t11 -23t15.5 -28t18 -30.5t22 -35.5t23 -37.5l201 -327 q90 129 116 179q50 95 50 179q0 216 -192 229v13h641v-13q-51 -3 -108.5 -35.5t-104 -73t-105.5 -109t-93.5 -114.5t-89 -121t-71.5 -98l-37 -49l492 -809q56 -93 113.5 -131.5t132.5 -38.5v-12h-965v12h31q182 0 182 68q0 31 -78 158l-18 30l-291 484l-60 -99 q-68 -114 -103.5 -200t-35.5 -164q0 -29 6.5 -62.5t24.5 -72.5t44.5 -70t71 -51.5t99.5 -20.5v-12h-705z" />
<glyph unicode="Y" horiz-adv-x="1740" d="M20 1591v13h959v-13q-95 0 -133.5 -14.5t-38.5 -54.5q0 -56 72 -187l239 -442l107 199q31 57 43 80.5t36.5 76.5t35 95t10.5 79q0 24 -4.5 44.5t-14 36t-19 27.5t-26 20.5t-26.5 14.5t-30 10.5t-28 6.5t-27.5 5t-21.5 3v13h567v-13q-120 -9 -202.5 -75t-176.5 -240 l-213 -397v-629q0 -50 2 -79.5t10 -60t22.5 -46t41 -29t64 -18.5t92.5 -5h12v-12h-958v12h14q47 0 81 4.5t59.5 11.5t41.5 22.5t26 31.5t15 44.5t6.5 54.5t1.5 69v573l-409 629q-49 76 -104 106t-126 33z" />
<glyph unicode="Z" horiz-adv-x="1425" d="M20 0l787 1591h-135q-87 0 -161.5 -29t-135 -86t-108 -127t-95.5 -165q-57 -111 -68 -271h-12v691h1290l-786 -1592h149q45 0 85.5 9t72.5 22t65 38.5t56.5 47.5t54 61.5t49.5 67t52 76.5q89 135 124.5 213t51.5 203h12v-750h-1348z" />
<glyph unicode="[" horiz-adv-x="620" d="M117 -184v1800h469v-98h-215v-1598h215v-104h-469z" />
<glyph unicode="\" horiz-adv-x="849" d="M2 1597l8 7l838 -1600l-10 -6z" />
<glyph unicode="]" horiz-adv-x="620" d="M31 -70h215v1598h-215v96h469v-1800h-469v106z" />
<glyph unicode="^" horiz-adv-x="636" d="M45 1352l272 252l273 -252l-6 -9l-267 123l-266 -123z" />
<glyph unicode="_" horiz-adv-x="1157" d="M0 -141h1157v-135h-1157v135z" />
<glyph unicode="`" horiz-adv-x="342" d="M18 1534q0 30 23 50t55 20q47 0 75.5 -48t62.5 -135t73 -139l-10 -8q-34 45 -86.5 82.5t-92.5 57.5t-70 50.5t-30 69.5z" />
<glyph unicode="a" d="M55 262q0 40 15 94q9 31 23 55t26.5 40.5t35.5 30.5t38 21.5t47 15.5t49.5 11.5t58.5 10.5l49 8q78 13 133.5 38.5t84.5 53t45 69t19 71.5t3 75q0 58 -8.5 98.5t-20.5 63t-33 35t-39.5 15.5t-45.5 3q-23 0 -46.5 -3t-58.5 -12t-63.5 -32.5t-42.5 -58.5q16 8 45 8 q63 0 117.5 -45t54.5 -125q0 -88 -63.5 -144.5t-143.5 -56.5q-79 0 -139 57.5t-60 147.5q0 83 64 148t170.5 100t234.5 35q218 0 348 -91q48 -34 78.5 -73.5t43.5 -86.5t16.5 -83t3.5 -90v-535v-18.5t1 -19t3 -20.5t5 -15.5t9 -12.5t14 -4q10 0 21.5 7.5t26 27.5t26.5 49.5 t20.5 79.5t10.5 112h14q0 -26 -4 -61t-13.5 -83.5t-32.5 -89.5t-56 -58q-68 -39 -166 -39q-63 0 -109 18q-84 33 -120.5 76.5t-61.5 136.5q-54 -169 -162 -213q-36 -14 -112 -14q-353 0 -353 272zM453 291q0 -41 8 -139q1 -23 3 -37.5t7 -36.5t17 -33.5t30 -11.5q27 0 41 14 q42 27 68 72t36.5 108t13.5 111t3 123v264q-5 -33 -24 -58.5t-38 -39.5q-71 -53 -98.5 -80t-39 -56.5t-19.5 -91.5q-8 -55 -8 -108z" />
<glyph unicode="b" horiz-adv-x="1308" d="M27 1556v13h585v-643q23 41 54 78q71 86 206 86q73 0 134 -31t101 -82t68 -117.5t40 -135.5t12 -138q0 -131 -33.5 -237t-86.5 -171.5t-122 -110t-135.5 -62t-132.5 -17.5q-56 0 -104.5 21t-82.5 51t-64 60.5t-63.5 51.5t-68.5 21q-121 0 -121 -193h-14v1360 q0 43 -1.5 68t-7.5 50t-17 37.5t-30.5 23t-47 14t-68.5 3.5zM612 238q0 -137 22 -187.5t85 -50.5q34 0 55.5 17t35 71t13.5 150v489q0 130 -11 186t-54 86q-22 13 -37 13q-20 0 -43 -19t-33 -39q-33 -61 -33 -233v-483z" />
<glyph unicode="c" horiz-adv-x="1187" d="M68 520q0 110 48 213.5t130 182t199 126.5t247 48q87 0 148.5 -23.5t128.5 -81.5q49 -42 83.5 -99.5t34.5 -117.5q0 -27 -6 -56.5t-21.5 -62.5t-39.5 -59t-64.5 -43t-91.5 -17q-100 0 -166.5 62t-66.5 160q0 94 62 151.5t167 57.5q62 0 96 -19q-17 55 -86 92t-153 37 q-124 0 -170.5 -137t-46.5 -432q0 -44 0.5 -73.5t3 -74.5t6.5 -76t12.5 -70t20 -65.5t29 -54.5t39.5 -44.5t52.5 -27t67.5 -10.5q65 0 122 26.5t99 70t74.5 101t51.5 119.5t26 126h14q-6 -49 -17.5 -96.5t-35 -109t-68 -116t-104.5 -90.5q-80 -49 -229 -49q-136 0 -244 37.5 t-172.5 94t-106.5 130.5t-57.5 140t-15.5 130z" />
<glyph unicode="d" horiz-adv-x="1361" d="M82 506q0 150 60.5 286.5t156 217t195.5 80.5q50 0 90 -16.5t62.5 -38.5t39.5 -53t23 -52t10 -43v473q0 51 -4 82t-13.5 55.5t-30 36t-50 17t-76.5 5.5v13h588v-1356q0 -64 4.5 -97t22.5 -59.5t52.5 -35.5t94.5 -9v-12h-592v221q-1 -2 -7 -24t-10 -34.5t-15.5 -37 t-23 -40.5t-32 -36t-43.5 -32t-56.5 -20.5t-72.5 -8.5q-107 0 -193.5 74.5t-133 192.5t-46.5 251zM494 244q0 -85 9.5 -131.5t24 -61t39.5 -14.5q57 0 97 84q51 107 51 309v305q0 167 -39 240q-31 59 -84 59q-32 0 -52 -21t-33 -84.5t-13 -174.5v-510z" />
<glyph unicode="e" horiz-adv-x="1165" d="M68 510q0 250 198 442q73 70 167.5 104t191.5 34q323 0 442 -310q29 -79 29 -231h-615v-125q0 -103 10.5 -175.5t36.5 -129t73 -84t116 -27.5q79 0 146 39.5t111.5 104t72 141t36.5 156.5h15q-6 -49 -17.5 -97t-35.5 -109t-68.5 -115.5t-104.5 -90.5q-80 -49 -231 -49 q-132 0 -235.5 35.5t-165 89.5t-102 126t-55.5 138t-15 133zM481 563h240q6 120 6 262q0 100 -10.5 153.5t-50.5 88.5q-10 10 -45 10q-84 0 -112 -102.5t-28 -351.5v-60z" />
<glyph unicode="f" horiz-adv-x="1021" d="M20 0v12q112 0 143.5 38.5t31.5 162.5v850h-121v14h121v35q0 70 6 120.5t28 110.5t61 102.5t110 80.5t171 59q117 19 172 19q90 0 164 -23t125 -79.5t51 -139.5q0 -89 -63 -146t-141 -57q-29 0 -60.5 9t-65 29.5t-55.5 61.5t-22 97q0 81 55 132.5t131 51.5q36 0 101 -14 q-20 27 -81 45t-106 18q-44 0 -75 -15.5t-49 -41t-28 -69t-13 -86.5t-3 -107v-193h223v-14h-223v-850q0 -66 5 -101t24 -59.5t51.5 -32.5t91.5 -8v-12h-760z" />
<glyph unicode="g" horiz-adv-x="1296" d="M41 -223q0 15 3 29.5t16 38.5t35 43.5t66 39t103 31.5q-25 11 -40.5 19t-45 29t-47 43t-31.5 58t-14 78q0 213 303 271q-49 20 -87 43t-76 57.5t-58.5 84t-20.5 110.5q0 97 74.5 176.5t187 120.5t234.5 41q51 0 123 -11q-33 71 -33 142q0 103 73 167t187 64q46 0 82 -13 t56 -32.5t33 -44t17.5 -44.5t4.5 -38q0 -76 -53 -124t-127 -48q-71 0 -121.5 46.5t-50.5 119.5q0 94 81 153q-45 -11 -78.5 -33.5t-52 -51.5t-27.5 -59t-9 -62q0 -53 21.5 -87.5t59 -56t78.5 -39.5t90 -51t84 -78q49 -64 49 -147q0 -149 -140.5 -246.5t-350.5 -97.5 q-75 0 -135.5 11t-85.5 11q-30 0 -50.5 -9t-29 -24t-11.5 -26t-3 -21q0 -92 215 -92h225q94 0 167 -8.5t139 -30.5t109 -58t68 -93t25 -133q0 -106 -41 -174q-26 -43 -69.5 -77.5t-90.5 -56.5t-109.5 -37.5t-112 -23.5t-113.5 -12.5t-99 -5t-82 -0.5q-125 0 -220.5 14.5 t-149.5 37t-88 53t-45 57.5t-11 57zM199 -211q0 -80 30 -125q61 -92 326 -92q51 0 82 0.5t83.5 4.5t86 10.5t73.5 20.5t63.5 33.5t39.5 49.5t16 69q0 56 -35.5 93.5t-104 54t-109.5 22t-110 8.5q-12 1 -17 1q-218 12 -252 12q-40 0 -66.5 -5t-53 -20.5t-39.5 -49.5t-13 -87z M522 741q0 -186 26.5 -249.5t104.5 -63.5q55 0 90 51q23 36 23 209q0 178 -11.5 259t-35.5 105.5t-78 24.5q-40 0 -63.5 -22t-39.5 -98t-16 -216z" />
<glyph unicode="h" horiz-adv-x="1452" d="M20 0v12q58 0 91.5 8t53 33t25 60.5t5.5 99.5v1147q0 51 -3 79.5t-12.5 54.5t-29 37.5t-50.5 18t-80 6.5v13h586v-664q69 185 287 185q70 0 141 -19.5t119 -58.5q63 -54 83.5 -111t20.5 -141v-547q0 -65 5 -99.5t24 -60t52.5 -33.5t93.5 -8v-12h-674v12q58 0 74 43 t16 162v610q0 93 -21 146t-77 53q-27 0 -54 -18q-57 -39 -73.5 -110t-16.5 -196v-485q0 -119 16 -162t74 -43v-12h-676z" />
<glyph unicode="i" horiz-adv-x="800" d="M20 0v12q49 0 80 7t50.5 19.5t29 39t12.5 55.5t3 80v655q0 63 -4.5 95.5t-23 58t-52.5 33.5t-95 8v14h588v-864q0 -43 1.5 -68.5t7.5 -51t17 -38.5t30.5 -24t47.5 -15t68 -4v-12h-760zM160 1354q0 82 65.5 140t157.5 58t158.5 -58t66.5 -140t-66.5 -140.5t-158.5 -58.5 t-157.5 58.5t-65.5 140.5z" />
<glyph unicode="j" horiz-adv-x="841" d="M-164 -215q0 88 59 144.5t138 56.5q48 0 93 -18.5t78.5 -63t33.5 -107.5q0 -78 -49.5 -130t-133.5 -52q-20 0 -30 2q43 -31 114 -31q57 0 97 25q48 30 60.5 79t12.5 163v1015q0 63 -4.5 95.5t-22.5 58t-52 33.5t-95 8v14h586v-968q0 -82 -3 -129t-12.5 -95t-31 -80.5 t-55 -65.5t-87.5 -69q-64 -42 -174 -70t-215 -28q-83 0 -145.5 19.5t-96 51.5t-49.5 67.5t-16 74.5zM272 1354q0 82 67 140t159 58t157.5 -58t65.5 -140t-65.5 -140.5t-157.5 -58.5t-159 58.5t-67 140.5z" />
<glyph unicode="k" horiz-adv-x="1499" d="M20 0v12q60 0 94.5 9t52 36t22 59.5t4.5 96.5v1147q0 51 -3 79.5t-12 54.5t-28.5 37.5t-50 18t-79.5 6.5v13h584v-973l88 100q83 95 115.5 147.5t32.5 102.5q0 32 -9 54.5t-21.5 34.5t-35 18.5t-40.5 8t-46 1.5h-24v14h581v-14q-139 0 -232 -48.5t-202 -193.5l395 -612 q22 -35 41.5 -62.5t38 -47t32 -34t30 -23.5t26.5 -14.5t26.5 -8.5t24.5 -4t27 -1.5t27 -1.5v-12h-727v12q24 0 41.5 5t25.5 11t13 14t5.5 11.5t0.5 5.5q0 5 -1.5 12t-5.5 16.5t-8 18t-11.5 21.5t-12.5 22t-15 25t-16 25t-17.5 27.5t-17.5 27.5l-129 209v-250 q0 -112 16 -156.5t74 -44.5v-12h-674z" />
<glyph unicode="l" horiz-adv-x="800" d="M20 0v12q49 0 80 7t50.5 19.5t29 39t12.5 55.5t3 80v1147q0 51 -3 79.5t-12.5 54.5t-29 37.5t-50.5 18t-80 6.5v13h588v-1352q0 -43 1.5 -68.5t7.5 -51.5t17 -40t30.5 -25.5t47.5 -15.5t68 -4v-12h-760z" />
<glyph unicode="m" horiz-adv-x="2086" d="M20 0v12q49 0 80 7t50.5 19.5t29 39t12.5 55.5t3 80v655q0 63 -4.5 95.5t-23 58t-52.5 33.5t-95 8v14h584v-182q85 195 311 195q75 0 152 -21t121 -78q3 -5 12.5 -17.5t18.5 -25.5t14 -26q30 71 106 119.5t197 48.5q187 0 271.5 -96.5t84.5 -278.5v-502q0 -64 4.5 -97 t22.5 -59.5t52.5 -35.5t94.5 -9v-12h-673v12q57 0 73.5 45t16.5 156v547q0 136 -24 194t-91 58q-23 0 -39 -8q-43 -21 -61.5 -56.5t-18.5 -109.5v-625q0 -111 16.5 -156t73.5 -45v-12h-591v12q57 0 73.5 45t16.5 156v522q0 107 -10 163t-30.5 77.5t-60.5 21.5t-73 -36 t-46 -82q-14 -47 -14 -189v-477q0 -111 16.5 -156t73.5 -45v-12h-674z" />
<glyph unicode="n" horiz-adv-x="1449" d="M20 0v12q49 0 80 7t50.5 19.5t29 39t12.5 55.5t3 80v649q0 51 -3 80t-12.5 55.5t-29 39t-50.5 19.5t-80 7v14h586v-182q37 96 122 145.5t198 49.5q129 0 213 -66q70 -56 93 -127.5t23 -181.5v-502q0 -51 3 -80t12.5 -55.5t29 -39t50.5 -19.5t80 -7v-12h-674v12 q58 0 74 44.5t16 156.5v547q0 100 -13 155.5t-33 73t-52 17.5q-11 0 -26 -3.5t-40.5 -21t-40.5 -47.5q-20 -38 -27.5 -83.5t-7.5 -160.5v-477q0 -112 16 -156.5t74 -44.5v-12h-676z" />
<glyph unicode="o" horiz-adv-x="1261" d="M68 539q0 112 45.5 214.5t121.5 176t179.5 117t216.5 43.5t216.5 -43.5t179.5 -117t121.5 -176t45.5 -214.5t-45.5 -214.5t-121.5 -176t-179.5 -117t-216.5 -43.5t-216.5 43.5t-179.5 117t-121.5 176t-45.5 214.5zM498 238q0 -236 133 -236q135 0 135 236v602 q0 235 -135 235q-133 0 -133 -235v-602z" />
<glyph unicode="p" horiz-adv-x="1320" d="M20 -324q49 0 80 7t50.5 19.5t29 39t12.5 55.5t3 80v991q0 64 -5.5 98.5t-25 58t-52.5 31t-92 7.5v14h588v-166q32 77 97.5 128t156.5 51q110 0 198 -75t134.5 -196t46.5 -262q0 -74 -13.5 -150.5t-45 -152.5t-76 -135t-113 -96t-149.5 -37q-42 0 -77.5 11t-56.5 23.5 t-43.5 38.5t-29.5 37t-23 39q-2 3 -3.5 5.5t-2.5 4.5v-264q0 -38 3 -67t11 -50.5t16 -36.5t25 -24.5t29.5 -15t38 -8t43 -3t51.5 -0.5v-12h-805v12zM608 324q0 -106 25 -179q17 -48 43 -71t51 -23q94 0 94 262q2 150 2 252q0 243 -18.5 338.5t-95.5 95.5q-39 0 -64 -47 q-37 -72 -37 -223v-405z" />
<glyph unicode="q" horiz-adv-x="1296" d="M82 489q0 164 56.5 304t147 218.5t191.5 78.5q167 0 242 -183v170h543v-14q-81 -4 -106.5 -45.5t-25.5 -149.5v-991q0 -124 24.5 -162.5t107.5 -38.5v-12h-740v12q69 0 105.5 6.5t58.5 31.5t27.5 61t5.5 106v338q-6 -22 -9 -32t-14.5 -39t-22.5 -45.5t-33 -41.5 t-47 -38.5t-62.5 -24t-81.5 -10.5q-31 0 -71 10t-94 43t-97.5 85t-74 146.5t-30.5 216.5zM479 563q0 -288 16 -398t83 -110q18 0 35.5 9.5t37 36t33.5 67t23.5 109t9.5 155.5v334q0 104 -36 184t-91 80q-20 0 -36 -9.5t-27.5 -30.5t-19.5 -43.5t-13 -61t-8.5 -68.5 t-4.5 -80.5t-1.5 -84t-0.5 -89.5z" />
<glyph unicode="r" horiz-adv-x="1101" d="M20 0v12q49 0 80 7t50.5 19.5t29 39t12.5 55.5t3 80v655q0 63 -4.5 95.5t-23 58t-52.5 33.5t-95 8v14h570v-213q57 226 244 226q101 0 155.5 -69t54.5 -169q0 -96 -56 -155.5t-140 -59.5q-79 0 -135 52t-56 140q0 84 53.5 136.5t139.5 52.5q71 0 123 -43q-3 31 -18.5 53 t-38.5 31t-40 12.5t-34 3.5q-111 0 -166 -65q-41 -48 -54.5 -111t-13.5 -172v-514q0 -43 1.5 -68.5t7.5 -51t17 -38.5t30.5 -24t47.5 -15t68 -4v-12h-760z" />
<glyph unicode="s" horiz-adv-x="1073" d="M68 0v508h12q22 -117 99 -235.5t181.5 -195.5t198.5 -77q73 0 115.5 46.5t42.5 107.5q0 33 -11.5 59.5t-29.5 44.5t-46 33.5t-55.5 26t-63.5 22.5q-16 5 -24 8l-53 19q-138 46 -197 82q-145 90 -145 268q0 78 27.5 142.5t71.5 106.5t101 70.5t114 41t112 12.5 q76 0 176 -31t129 -31q44 0 60 55h14v-381h-12q-8 79 -62 166.5t-136.5 149t-160.5 61.5q-41 0 -70.5 -16t-44.5 -41.5t-21.5 -49.5t-6.5 -48q0 -60 51.5 -105.5t177.5 -83.5l60 -18q119 -36 159 -55q140 -67 166 -212q7 -38 7 -81q0 -116 -60 -205t-154.5 -133.5 t-205.5 -44.5q-75 0 -161.5 22t-152 44t-88.5 22q-29 0 -52 -17t-48 -57h-14z" />
<glyph unicode="t" horiz-adv-x="815" d="M55 1063v14q174 8 334 117q159 108 174 274h12v-391h187v-14h-187v-803q0 -89 4.5 -129t13.5 -51.5t30 -11.5q49 0 82 82q14 35 24 105.5t10 141.5h15q0 -83 -21 -190q-5 -23 -8.5 -38t-13 -40.5t-21.5 -42t-34 -36.5t-49 -32t-67 -20t-89 -8q-91 0 -148 18t-88 61 t-42 100t-11 148v746h-107z" />
<glyph unicode="u" horiz-adv-x="1447" d="M20 1063v14h588v-768q0 -43 0.5 -69t3 -56t7.5 -46.5t13.5 -31.5t22 -21.5t31.5 -6.5q29 0 47 14q60 38 77 125.5t17 265.5v385q0 106 -27 150t-108 45v14h549v-864q0 -64 4.5 -97t22.5 -59.5t52.5 -35.5t94.5 -9v-12h-592v203q-41 -108 -112.5 -161.5t-186.5 -53.5 q-132 0 -223 65q-69 49 -87.5 116.5t-18.5 217.5v481q0 63 -4.5 95.5t-23 58t-52.5 33.5t-95 8z" />
<glyph unicode="v" horiz-adv-x="1325" d="M20 1063v14h715v-14q-51 -2 -79.5 -14.5t-28.5 -44.5q0 -31 41 -152l194 -584l117 387q41 134 41 213q0 100 -51 156q-14 16 -47 27.5t-74 11.5h-8v14h465v-14h-2q-40 0 -74.5 -12.5t-59 -29.5t-48 -49.5t-37 -55.5t-29.5 -65.5t-22 -62.5t-18 -62q-5 -16 -7 -24 l-209 -702h-287l-328 893q-41 111 -54 132q-20 31 -63 36q-16 2 -47 2z" />
<glyph unicode="w" horiz-adv-x="1759" d="M20 1063v14h609v-14q-5 0 -14.5 -0.5t-13.5 -0.5t-11 -1t-10.5 -2t-8.5 -2.5t-7 -4.5t-4.5 -7t-3.5 -9t-1 -12q0 -12 14 -70l162 -587l109 376l-76 261q-9 35 -22.5 47t-49.5 12v14h570v-14q-40 -3 -59 -20t-19 -60q0 -44 26 -137l136 -471l75 235q60 186 60 281 q0 91 -45 139q-5 5 -16 11.5t-37 14t-56 7.5v14h412v-14q-34 -3 -58 -10t-52.5 -28t-52.5 -57t-51 -97t-55 -148l-227 -723h-188l-207 719l-205 -719h-194q-7 0 -69 216.5t-120 433.5l-59 216q-15 54 -26.5 83t-31.5 57t-49 40.5t-74 16.5z" />
<glyph unicode="x" horiz-adv-x="1449" d="M20 0v12q27 0 52 4.5t52.5 18.5t48 26t52 41t51.5 48.5t59.5 63.5t62.5 71t73 86l94 112l-213 369q-10 17 -26 46t-24 42.5t-22 35t-24 31t-26 23t-32 19t-38.5 10t-48.5 4.5v14h731v-14q-54 -3 -75.5 -22.5t-21.5 -45.5q0 -8 2 -17t6 -18t7.5 -15t9 -15.5t6.5 -11.5 l117 -201l76 100q47 60 47 131q0 66 -25.5 88.5t-72.5 26.5v14h389v-14q-48 -5 -94.5 -28.5t-89.5 -63t-76.5 -78.5t-73.5 -92l-72 -96l281 -482q59 -102 91.5 -142.5t63 -53.5t93.5 -15v-12h-758v12l25.5 3t27 6t28.5 12t18.5 19.5t8.5 29.5q0 13 -5.5 30.5t-18 41.5 t-22.5 41.5t-29 49.5t-27 46l-105 180l-90 -109q-96 -116 -96 -206h2q0 -62 52.5 -99.5t127.5 -44.5v-12h-549z" />
<glyph unicode="y" horiz-adv-x="1376" d="M20 1063v14h719v-14q-64 -5 -80 -15q-20 -13 -20 -42q0 -33 57 -162l205 -477l70 200q73 215 73 314q0 60 -26 120q-8 18 -18.5 29t-28 17.5t-26 9t-32.5 6.5v14h443v-14h-4q-61 0 -111.5 -28.5t-90.5 -84t-70.5 -121t-61.5 -157.5l-230 -692q-38 -118 -60 -164 q-102 -213 -302 -213q-114 0 -182 60t-68 159q0 86 55.5 152.5t147.5 66.5q79 0 139 -54.5t60 -146.5q0 -88 -55.5 -136t-131.5 -48q-40 0 -90 16q19 -29 59.5 -41t71.5 -12q114 0 193 76q99 93 153 305h-151l-416 887q-5 10 -16 34t-15 32.5t-13.5 27t-15.5 25t-17 19.5 t-21.5 17.5l-24.5 10.5t-31 8t-37 2z" />
<glyph unicode="z" horiz-adv-x="1159" d="M41 0l565 1063h-78q-205 0 -335 -215q-66 -103 -82 -225h-13v454h979l-563 -1065h96q65 0 122 23.5t106 71t85 95t81 120.5q25 39 38.5 63.5t28.5 66t21 85.5h12v-537h-1063z" />
<glyph unicode="{" horiz-adv-x="958" d="M12 473v113q85 14 139 30.5t97 42.5t65.5 66.5t33.5 98t11 141.5v118q0 54 4 96t17.5 89.5t37 83t64.5 70t97 57.5t137.5 39t183.5 20v-100q-62 -9 -103.5 -21.5t-99.5 -46.5q-68 -40 -92 -90.5t-24 -136.5v-230q0 -92 -26 -158.5t-97 -121.5q-83 -66 -320 -105 q232 -33 320 -102q71 -55 97 -121.5t26 -159.5v-229q0 -86 24 -136.5t92 -90.5q58 -34 99.5 -46.5t103.5 -21.5v-100q-119 5 -209.5 24t-148.5 52.5t-95.5 72t-56 92t-25 101.5t-6.5 112v119q0 84 -11 141.5t-33.5 98t-65.5 66.5t-97 42.5t-139 30.5z" />
<glyph unicode="|" horiz-adv-x="399" d="M117 -145v1800h153v-1800h-153z" />
<glyph unicode="}" horiz-adv-x="956" d="M57 -379q62 9 103.5 21.5t99.5 46.5q68 40 92.5 90.5t24.5 136.5v229q0 93 26 159.5t97 121.5q88 69 319 102q-235 39 -319 105q-71 55 -97 121.5t-26 158.5v230q0 86 -24.5 136.5t-92.5 90.5q-58 34 -99.5 46.5t-103.5 21.5v100q102 -4 183.5 -20t137.5 -39t97 -57.5 t64.5 -70t37 -83t17.5 -89.5t4 -96v-118q0 -84 11 -141.5t33.5 -98t65.5 -66.5t97 -42.5t139 -30.5v-113q-85 -14 -139 -30.5t-97 -42.5t-65.5 -66.5t-33.5 -98t-11 -141.5v-119q0 -64 -6.5 -112t-25 -101.5t-56 -92t-95.5 -72t-148.5 -52.5t-209.5 -24v100z" />
<glyph unicode="~" horiz-adv-x="747" d="M88 1430q11 37 23 64t32 54t50.5 41.5t70.5 14.5q44 0 150 -28t145 -28q28 0 46 10t44 37h15q-69 -174 -183 -174q-34 0 -159 32t-138 32q-46 0 -86 -55h-10z" />
<glyph unicode="&#xa1;" horiz-adv-x="669" d="M82 -29q0 136 131 375l39 72q50 93 64 170t14 190h12q0 -80 2.5 -122t19.5 -107.5t52 -130.5l39 -72q135 -246 135 -375q0 -121 -67 -203.5t-187 -82.5t-187 82.5t-67 203.5zM100 1073q0 98 69 167t167 69q97 0 167 -69t70 -167q0 -97 -69.5 -165t-167.5 -68 q-99 0 -167.5 67.5t-68.5 165.5z" />
<glyph unicode="&#xa2;" horiz-adv-x="1193" d="M72 784q0 74 26 152.5t79 153t125.5 133t174.5 94t217 35.5q93 0 164 -29l84 229l16 -10l-81 -227q36 -18 96 -64q65 -56 92 -115.5t27 -103.5q0 -25 -5.5 -52.5t-21 -61.5t-39 -60.5t-65 -44.5t-93.5 -18q-38 0 -72 10.5t-48.5 19t-42.5 27.5l-162 -438 q24 -68 69.5 -105t128.5 -37q63 0 120.5 26.5t99.5 71t74.5 102t50.5 119t22 122.5h14q-4 -48 -16 -97t-36 -109.5t-68.5 -115.5t-104.5 -90q-83 -51 -229 -51q-87 0 -179 20l-104 -274l-16 8l100 270q-78 21 -133 52q-87 50 -148 127.5t-88.5 161t-27.5 169.5zM504 764 q0 -127 4.5 -196t21.5 -124l160 424q-55 55 -55 150q0 18 2.5 37t14 47.5t30.5 51.5t55 42.5t84 26.5l29 84q-41 28 -129 28q-64 0 -107 -36.5t-67 -113.5t-33.5 -177t-9.5 -244zM842 1223q10 2 30 2q48 0 91 -19q-14 34 -36 54.5t-59 39.5z" />
<glyph unicode="&#xa3;" horiz-adv-x="1263" d="M51 143q0 57 47 99q21 20 52.5 34.5t58.5 22t69 12.5t63.5 6.5t64 3t49.5 1.5q-4 46 -11.5 88t-14 71t-21 72.5t-22.5 66t-30.5 80.5t-33.5 88h-164v17h159q-34 166 -34 260q0 128 43.5 234t116 174t164 105.5t190.5 37.5q77 0 136 -18t93 -45.5t55.5 -65t29 -71.5 t7.5 -70q0 -24 -4 -48.5t-17 -55.5t-33.5 -54t-57 -39t-84.5 -16q-76 0 -130.5 46.5t-54.5 137.5q0 48 19 84t50 54t61.5 26t60.5 8q64 0 114 -37q-8 53 -33 84t-91 53q-38 10 -70 10q-29 0 -54.5 -6t-55.5 -26.5t-51.5 -52.5t-35.5 -90t-14 -134t9 -137t31 -162.5 t36 -185.5h231v-17h-229q4 -62 4 -86q0 -40 -4.5 -77.5t-8.5 -61.5t-18 -65.5t-19 -55.5t-27 -68t-28 -69q121 -14 193 -14q229 0 309 94q37 47 47 193h15q-3 -31 -4.5 -51t-9.5 -78t-17 -100.5t-27 -102.5t-39 -103.5t-53 -83t-70 -59.5q-60 -29 -124 -29q-45 0 -82.5 9.5 t-72.5 32.5t-54 39.5t-56.5 54t-52.5 51.5q-143 -160 -285 -160q-81 0 -130.5 42t-49.5 103zM68 143q0 -49 38 -90t117 -41q40 0 73.5 10t55.5 22t40 35t26.5 36t17 38.5t9.5 29t4 20.5q-112 76 -216 76q-68 0 -116.5 -39.5t-48.5 -96.5z" />
<glyph unicode="&#xa7;" horiz-adv-x="1081" d="M66 545q0 95 60.5 200.5t145.5 169.5q-44 39 -69 104.5t-25 133.5q0 116 49.5 216.5t143.5 163t211 62.5q84 0 154 -24t117.5 -78.5t47.5 -130.5q0 -96 -43 -153.5t-133 -57.5q-64 0 -104.5 45.5t-40.5 101.5q0 16 3.5 33.5t13.5 38t24.5 36.5t40.5 27t59 11 q58 0 95.5 -40t37.5 -95q0 -18 -12 -72q37 52 37 145q0 49 -32 91.5t-89 70.5q-76 39 -183 39q-72 0 -142.5 -32t-118.5 -93.5t-48 -134.5q0 -56 25 -102t68 -77.5t98.5 -58.5t116.5 -50.5t122 -48t116.5 -55.5t98.5 -69t68 -93.5t25 -123.5q0 -111 -40.5 -195t-144.5 -188 q74 -43 104.5 -105t30.5 -151q0 -182 -131 -312t-313 -130q-84 0 -154.5 24t-118 78.5t-47.5 130.5q0 96 43.5 153.5t133.5 57.5q64 0 104.5 -45.5t40.5 -101.5q0 -16 -3.5 -33.5t-13.5 -38t-24.5 -36.5t-40.5 -27t-59 -11q-58 0 -95.5 40t-37.5 95q0 18 12 72 q-37 -52 -37 -145q0 -49 32 -91.5t89 -70.5q76 -39 182 -39q73 0 152.5 32t138.5 93.5t59 134.5q0 63 -34.5 114.5t-90.5 85.5t-128 67.5t-147 60t-147 63.5t-128 77.5t-90.5 102.5t-34.5 138zM145 682q0 -55 45 -102.5t122.5 -85.5t159.5 -70.5t177 -73t154 -78.5 q127 117 127 207q0 55 -41 100.5t-113.5 82.5t-151 69.5t-176 79t-165.5 94.5q-138 -105 -138 -223z" />
<glyph unicode="&#xa8;" horiz-adv-x="681" d="M102 1473q0 40 28.5 68t68.5 28t68 -28t28 -68t-28 -68.5t-68 -28.5t-68.5 28.5t-28.5 68.5zM385 1473q0 39 28.5 67.5t67.5 28.5q40 0 68.5 -28t28.5 -68t-28.5 -68.5t-68.5 -28.5q-39 0 -67.5 29t-28.5 68z" />
<glyph unicode="&#xaa;" horiz-adv-x="817" d="M51 1067q0 25 8 57q10 32 24.5 52t40 31.5t44 16t59.5 11.5l29 4q47 8 80.5 23.5t51 32t27 41t11.5 42.5t2 45q0 81 -22.5 105t-65.5 24q-100 0 -127 -63q8 4 27 4q39 0 70.5 -27t31.5 -75q0 -53 -38 -86t-85 -33t-83 34t-36 89q0 75 81.5 121.5t199.5 46.5 q136 0 209 -54q29 -20 47.5 -44t25.5 -52.5t9 -49t2 -54.5v-320q0 -55 20 -55q10 0 23 13t26 53t15 100h8q0 -24 -3.5 -53.5t-19 -69.5t-41.5 -53q-42 -23 -100 -23q-42 0 -65 10q-51 20 -72 46.5t-37 82.5q-34 -103 -98 -129q-18 -8 -68 -8q-211 0 -211 164zM291 1083 q0 -24 4 -82q1 -16 2 -22.5t4.5 -21t10.5 -21t18 -6.5q16 0 24 8q25 16 40.5 42.5t22 65t8 66.5t1.5 74v160q-3 -20 -14.5 -36t-22.5 -24q-60 -44 -74 -64.5t-20 -72.5q-4 -25 -4 -66z" />
<glyph unicode="&#xab;" horiz-adv-x="905" d="M51 518l293 356h160l-293 -356l293 -356h-160zM360 518l289 356h160l-291 -356l291 -356h-160z" />
<glyph unicode="&#xad;" horiz-adv-x="636" d="M115 516v96h403v-96h-403z" />
<glyph unicode="&#xae;" horiz-adv-x="1517" d="M41 408l61 186h273l86 242h-268l67 184h268l144 407h223l-147 -407h233l147 407h222l-148 -407h275l-70 -184h-270l-86 -242h270l-64 -186h-274l-147 -408h-218l144 408h-232l-147 -408h-217l143 408h-268zM596 594h233l84 242h-229z" />
<glyph unicode="&#xb0;" horiz-adv-x="802" d="M84 1260q0 138 90.5 221.5t226.5 83.5q135 0 225.5 -83.5t90.5 -221.5t-90.5 -222t-225.5 -84t-226 84t-91 222zM305 1081q0 -56 27 -85t69 -29t68.5 29t26.5 85v357q0 56 -26.5 85t-68.5 29t-69 -29t-27 -85v-357z" />
<glyph unicode="&#xb2;" horiz-adv-x="907" d="M88 643q0 84 27 145q50 113 155 168l47 25q51 27 86 49.5t58.5 48t36.5 45.5t19 52.5t7.5 58t1.5 72.5q0 60 -11.5 106t-28.5 71.5t-41 41.5t-45 21t-44 5q-17 0 -38.5 -4.5t-48 -18.5t-48 -34.5t-36.5 -56t-15 -80.5q38 45 96 45q60 0 95.5 -36t35.5 -95 q0 -48 -26 -79.5t-55 -41.5t-56 -10q-62 0 -105.5 40t-43.5 113q0 22 6.5 52t34.5 80.5t73 89.5q61 53 203 53q68 0 133 -16.5t119.5 -48.5t87.5 -85.5t33 -120.5q0 -40 -11 -74t-26 -58.5t-42.5 -46.5t-47.5 -34.5t-55 -26t-51 -19t-49 -14.5q-12 -3 -17 -5l-121 -37 q-47 -14 -75 -25.5t-68 -36t-70 -64.5t-51 -95q-19 -48 -19 -109q0 -5 1 -17t1 -18q58 173 308 173q21 0 133 -7.5t129 -7.5q78 0 105.5 39.5t31.5 110.5h12v-52q-1 -46 -4.5 -80.5t-15 -81.5t-30 -80.5t-53 -64.5t-81.5 -47q-47 -14 -78 -14q-52 0 -101.5 27t-82 59t-75 59 t-83.5 27q-40 0 -72 -28.5t-32 -78.5l2 -41l-11 -2q-14 52 -14 115z" />
<glyph unicode="&#xb3;" horiz-adv-x="905" d="M76 768q0 86 46 127t101 41h6q61 0 100.5 -35.5t39.5 -91.5q0 -21 -6.5 -44t-20 -46.5t-41.5 -39t-65 -15.5q-56 0 -91 28q15 -61 55 -100t84.5 -52.5t94.5 -13.5q42 0 71.5 12.5t54 44t36.5 90.5t12 146q0 113 -20 173t-57 80t-105 20q-9 0 -26.5 -1t-25.5 -1v16 q24 -4 50 -4q76 0 112 39q31 36 31 153q0 85 -10 140t-30.5 79t-40.5 31.5t-50 7.5q-129 0 -156 -96q17 14 54 14q47 0 85.5 -29.5t38.5 -97.5q0 -49 -22.5 -81t-49 -42t-55.5 -10q-54 0 -92.5 38t-38.5 98q0 32 14 67.5t44 72t88.5 60t136.5 23.5q141 0 237.5 -63 t96.5 -169q0 -61 -36.5 -111t-86 -78.5t-109.5 -45.5q80 -16 139 -44.5t89 -57.5t47 -65t20.5 -57.5t3.5 -43.5q0 -73 -32 -130.5t-80 -91.5t-110.5 -56.5t-117 -31t-104.5 -8.5q-133 0 -221 72t-88 180z" />
<glyph unicode="&#xb4;" horiz-adv-x="342" d="M33 1282q39 52 73 139t62.5 135t75.5 48q32 0 55 -20t23 -50q0 -39 -30 -69.5t-70 -50.5t-92.5 -57.5t-86.5 -82.5z" />
<glyph unicode="&#xb6;" horiz-adv-x="1081" d="M72 1171q0 114 61 205q38 59 83.5 99t85.5 61t100 32t103 13t118 2h417v-14h-30q-105 0 -133.5 -21.5t-28.5 -99.5v-856q0 -166 -25.5 -284.5t-107.5 -215.5q-74 -90 -139 -134t-144 -44q-91 0 -155 55t-64 131q0 53 36.5 89t80.5 36q22 0 47 -8t48.5 -35t23.5 -67 q0 -12 -2 -23.5t-10 -28t-20.5 -28.5t-37 -20.5t-57.5 -8.5q0 -28 31 -53t81 -25q34 0 65 12t66 49.5t60 98.5t42 168t17 248v266h-74q-60 0 -98 2t-100.5 13.5t-107.5 32.5t-95 63.5t-86 103.5q-51 85 -51 186zM555 1085q0 -51 1.5 -85t5.5 -72t13 -62t23 -44.5t35.5 -30 t50.5 -9.5v787q-24 0 -41.5 -3.5t-31.5 -15t-23 -23t-15.5 -37t-10 -47t-5 -63t-2 -75.5t-0.5 -93v-127zM596 -2q32 27 48 41.5t46 46t46 57.5t38 69.5t33 89t19 109t8 136.5v1022h-136v-1039q0 -359 -102 -532z" />
<glyph unicode="&#xb7;" horiz-adv-x="534" d="M45 -307l6 8q48 -31 107.5 -47t101.5 -16q33 0 57.5 21t24.5 52q0 86 -272 86l180 205h12l-84 -100q68 -6 96.5 -9.5t80.5 -16.5t83 -34q54 -37 54 -78q0 -46 -70 -93.5t-152 -47.5q-41 0 -111 17t-114 53z" />
<glyph unicode="&#xb9;" horiz-adv-x="616" d="M29 506v8q47 0 70.5 4t42.5 21.5t24.5 49.5t5.5 91v573q0 87 -16.5 109t-83.5 22v9q88 22 192.5 68.5t167.5 107.5v-889q0 -107 26 -136.5t117 -29.5v-8h-546z" />
<glyph unicode="&#xba;" horiz-adv-x="749" d="M80 1165q0 123 85 208t208 85t208 -85t85 -208t-85 -208t-208 -85t-208 85t-85 208zM178 1165q0 -83 56 -138.5t139 -55.5t138.5 55.5t55.5 138.5t-55.5 139t-138.5 56t-139 -56t-56 -139z" />
<glyph unicode="&#xbb;" horiz-adv-x="905" d="M94 162l293 356l-293 356h162l289 -356l-289 -356h-162zM399 162l295 356l-295 356h162l291 -356l-291 -356h-162z" />
<glyph unicode="&#xbc;" horiz-adv-x="1503" d="M68 590v8q70 0 93 32.5t23 129.5v588q0 65 -19.5 80.5t-80.5 15.5v8q87 22 188.5 67.5t163.5 104.5v-864q0 -97 23.5 -129.5t93.5 -32.5v-8h-485zM238 -80l880 1759h17l-879 -1759h-18zM670 293l413 702h189v-653h96q18 0 28.5 3t18 14t10.5 19t10 32q2 6 3 10h14 l-31 -127h-149v-123q0 -107 23.5 -134.5t113.5 -27.5v-8h-528v8q90 0 113.5 27.5t23.5 134.5v123h-348zM713 342h303v520z" />
<glyph unicode="&#xbd;" horiz-adv-x="1527" d="M68 590v8q70 0 93 32.5t23 129.5v588q0 65 -19.5 80.5t-80.5 15.5v8q87 22 188.5 67.5t163.5 104.5v-864q0 -97 23.5 -129.5t93.5 -32.5v-8h-485zM240 -80l878 1759h17l-879 -1759h-16zM756 113q0 94 26 141q56 113 150 164l45 24q38 21 67 38.5t50.5 36.5t36 32.5t24 35 t14.5 34.5t7.5 40.5t3 44.5t0.5 54q0 73 -16 123t-43 73t-52.5 32t-54.5 9q-43 0 -86 -22q-91 -49 -94 -164q35 41 98 41q67 0 96 -39.5t29 -85.5q0 -47 -25.5 -78t-54 -41t-55.5 -10q-62 0 -103 40t-41 112q0 67 33 120q18 32 38 55t51.5 45t77.5 34t105 12 q64 0 126.5 -16.5t116 -48t87 -84t33.5 -117.5q0 -30 -6.5 -56.5t-16.5 -47.5t-27 -40t-31.5 -32.5t-38 -27t-38 -21t-39.5 -16.5t-35.5 -12t-32.5 -9t-24 -7l-119 -37q-72 -24 -98 -37q-174 -87 -174 -292v-25q58 168 299 168q17 0 107.5 -7t152.5 -7q57 0 93 41t36 104h10 v-49q0 -54 -6 -98.5t-22.5 -96.5t-54.5 -90.5t-95 -58.5q-41 -14 -82 -14q-42 0 -80.5 17t-67.5 41.5t-57 49.5t-60.5 42t-66.5 17q-44 0 -70 -32.5t-26 -71.5l2 -41h-10q-12 53 -12 111z" />
<glyph unicode="&#xbe;" horiz-adv-x="1593" d="M59 848q0 76 43.5 121t102.5 45q62 0 100.5 -37.5t38.5 -97.5q0 -57 -34.5 -94t-94.5 -37q-53 0 -88 28q13 -47 39.5 -81t60 -50.5t65.5 -23.5t66 -7q40 0 68.5 12.5t51.5 42.5t34.5 86.5t11.5 139.5q0 151 -38.5 210.5t-145.5 59.5q-7 0 -21 -1t-20 -1v15q24 -4 47 -4 q81 0 110 42t29 150q0 99 -16.5 154.5t-42 73.5t-66.5 18q-123 0 -154 -91q-1 -2 -1 -3q21 14 53 14q45 0 82 -29.5t37 -95.5q0 -39 -13 -66.5t-34 -40t-39.5 -17.5t-36.5 -5q-55 0 -91 39.5t-36 93.5q0 35 14.5 70.5t44.5 69t85.5 54.5t127.5 21q142 0 236 -61.5t94 -163.5 q0 -48 -24 -90t-61.5 -69.5t-73.5 -44t-68 -23.5q79 -16 137 -44.5t86.5 -56t45 -62t19.5 -54.5t3 -42q0 -77 -38 -138t-101 -98t-138.5 -56t-155.5 -19q-133 0 -217 72.5t-84 171.5zM373 -80l878 1759h19l-879 -1759h-18zM754 293l413 702h189v-653h96q18 0 28.5 3t18 14 t10.5 19t10 32q2 6 3 10h14l-31 -127h-149v-123q0 -107 23.5 -134.5t113.5 -27.5v-8h-528v8q90 0 113.5 27.5t23.5 134.5v123h-348zM797 342h303v520z" />
<glyph unicode="&#xbf;" horiz-adv-x="1294" d="M43 115q0 48 15 90.5t37.5 74t60.5 61t73 49t87 41.5t89.5 35t94 32.5t88.5 31.5q102 39 136 96t34 158h12q6 -40 6 -71q0 -49 -26 -110t-62.5 -123t-73 -128.5t-62.5 -149t-26 -163.5q0 -130 67.5 -222.5t190.5 -92.5q58 0 104.5 15t74 36t46.5 47.5t26.5 47t8.5 36.5 q-27 -12 -65 -12q-93 0 -161 61.5t-68 175.5q0 115 69 179.5t168 64.5q36 0 76.5 -13.5t80 -40.5t65.5 -76.5t26 -113.5q0 -120 -66 -209q-165 -223 -452 -223q-190 0 -340 45.5t-242 141.5t-92 229zM494 1081q0 94 66.5 161t160.5 67q95 0 161 -67t66 -161t-66 -160.5 t-161 -66.5q-94 0 -160.5 66.5t-66.5 160.5z" />
<glyph unicode="&#xc0;" horiz-adv-x="1822" d="M10 0v12q51 0 95.5 13.5t79 35t65.5 57.5t53.5 71.5t45.5 87t38.5 93.5t34.5 101l375 1133h340l479 -1452q27 -82 69 -111t127 -29v-12h-911v12h88q63 0 93 18t30 68q0 13 -2 27.5t-7.5 34.5t-9 31.5t-12 37t-10.5 33.5l-129 404h-440q-1 -4 -12.5 -38t-14 -41t-12.5 -38 t-12.5 -41t-10.5 -37.5t-10.5 -41t-7.5 -37t-7 -40t-3.5 -36t-1.5 -37.5q0 -98 47 -168q23 -35 54.5 -56.5t72 -30t67 -10.5t70.5 -2v-12h-711zM506 680h430l-205 680zM709 2019q0 25 18 47.5t59 22.5q39 0 67.5 -33.5t44 -78t42.5 -107t57 -103.5l-10 -8q-27 42 -78 78.5 t-93 57t-74.5 53t-32.5 71.5z" />
<glyph unicode="&#xc1;" horiz-adv-x="1822" d="M10 0v12q51 0 95.5 13.5t79 35t65.5 57.5t53.5 71.5t45.5 87t38.5 93.5t34.5 101l375 1133h340l479 -1452q27 -82 69 -111t127 -29v-12h-911v12h88l2 2q63 0 93 18t30 66q0 13 -2 28.5t-7.5 34t-9 31.5t-11.5 36.5t-11 33.5l-129 404h-440q-1 -4 -12.5 -38t-14 -41 t-12.5 -38t-12.5 -41t-10.5 -37.5t-10.5 -41t-7.5 -37t-7 -40t-3.5 -36t-1.5 -37.5q0 -101 45 -168q23 -35 54.5 -56.5t72 -30t67 -10.5t70.5 -2v-12h-711zM508 682h430l-205 680zM891 1767q30 41 57 103.5t42.5 107t44 78t67.5 33.5q41 0 59.5 -22.5t18.5 -47.5 q0 -39 -32.5 -71.5t-75 -53t-93.5 -57t-78 -78.5z" />
<glyph unicode="&#xc2;" horiz-adv-x="1822" d="M10 0v12q51 0 95.5 13.5t79 35t65.5 57.5t53.5 71.5t45.5 87t38.5 93.5t34.5 101l375 1133h340l479 -1452q27 -82 69 -111t127 -29v-12h-911v12h88q63 0 93 18t30 68q0 13 -2 27.5t-7.5 34.5t-9 31.5t-12 37t-10.5 33.5l-129 404h-440q-1 -4 -12.5 -38t-14 -41t-12.5 -38 t-12.5 -41t-10.5 -37.5t-10.5 -41t-7.5 -37t-7 -40t-3.5 -36t-1.5 -37.5q0 -98 47 -168q23 -35 54.5 -56.5t72 -30t67 -10.5t70.5 -2v-12h-711zM506 680h430l-205 680zM713 1772l272 251l272 -251l-8 -9l-264 123l-266 -123z" />
<glyph unicode="&#xc3;" horiz-adv-x="1822" d="M10 0v12q51 0 95.5 13.5t79 35t65.5 57.5t53.5 71.5t45.5 87t38.5 93.5t34.5 101l375 1133h340l479 -1452q27 -82 69 -111t127 -29v-12h-911v12h88q63 0 93 18t30 68q0 13 -2 27.5t-7.5 34.5t-9 31.5t-12 37t-10.5 33.5l-129 404h-440q-1 -4 -12.5 -38t-14 -41t-12.5 -38 t-12.5 -41t-10.5 -37.5t-10.5 -41t-7.5 -37t-7 -40t-3.5 -36t-1.5 -37.5q0 -98 47 -168q23 -35 54.5 -56.5t72 -30t67 -10.5t70.5 -2v-12h-711zM506 680h430l-205 680zM690 1772q11 37 23 64t32 54t50.5 41.5t70.5 14.5q44 0 150 -28t145 -28q28 0 46 10t44 37h15 q-69 -174 -183 -174q-34 0 -159 32t-138 32q-46 0 -86 -55h-10z" />
<glyph unicode="&#xc4;" horiz-adv-x="1822" d="M10 0v12q51 0 95.5 13.5t79 35t65.5 57.5t53.5 71.5t45.5 87t38.5 93.5t34.5 101l375 1133h340l479 -1452q27 -82 69 -111t127 -29v-12h-911v12h88l2 2q63 0 93 18t30 66q0 13 -2 28.5t-7.5 34t-9 31.5t-11.5 36.5t-11 33.5l-129 404h-440q-1 -4 -12.5 -38t-14 -41 t-12.5 -38t-12.5 -41t-10.5 -37.5t-10.5 -41t-7.5 -37t-7 -40t-3.5 -36t-1.5 -37.5q0 -101 45 -168q23 -35 54.5 -56.5t72 -30t67 -10.5t70.5 -2v-12h-711zM508 682h430l-205 680zM737 1860q0 38 29.5 67t69.5 29q38 0 67 -29t29 -67q0 -40 -29 -69.5t-67 -29.5 q-40 0 -69.5 29.5t-29.5 69.5zM1022 1860q0 39 28.5 67.5t67.5 28.5t67.5 -28.5t28.5 -67.5q0 -40 -28.5 -69.5t-67.5 -29.5t-67.5 29.5t-28.5 69.5z" />
<glyph unicode="&#xc5;" horiz-adv-x="1822" d="M10 0v12q51 0 95.5 13.5t79 35t65.5 57.5t53.5 71.5t45.5 87t38.5 93.5t34.5 101l375 1133h340l479 -1452q27 -82 69 -111t127 -29v-12h-911v12h88l2 2q63 0 93 18t30 66q0 13 -2 28.5t-7.5 34t-9 31.5t-11.5 36.5t-11 33.5l-129 404h-440q-1 -4 -12.5 -38t-14 -41 t-12.5 -38t-12.5 -41t-10.5 -37.5t-10.5 -41t-7.5 -37t-7 -40t-3.5 -36t-1.5 -37.5q0 -101 45 -168q23 -35 54.5 -56.5t72 -30t67 -10.5t70.5 -2v-12h-711zM508 682h430l-205 680zM825 1927q0 68 52 117t110 49t110 -49t52 -117t-52 -116t-110 -48t-110 48t-52 116z M930 1868q0 -47 15 -71.5t42 -24.5t42 24.5t15 71.5v119q0 96 -57 96t-57 -96v-119z" />
<glyph unicode="&#xc6;" horiz-adv-x="2322" d="M10 0v12q70 0 133.5 28.5t118 82.5t100 121.5t91.5 156.5l540 1055q-1 29 -10 50.5t-32 42t-70.5 31.5t-116.5 11h-12v13h1388v-615h-12q0 91 -24 177.5t-85 174.5t-153 154q-82 59 -167 77.5t-233 18.5v-731q147 0 229.5 53.5t133.5 182.5q6 18 13 66t7 93h15v-806h-15 q0 44 -7 93t-13 64q-51 130 -134 185t-229 55v-596q0 -113 9.5 -160.5t31.5 -61.5t76 -14q178 0 248 33q88 40 148.5 86.5t110.5 121.5t77.5 187.5t34.5 268.5h12v-711h-1462v12h12q47 0 81 4.5t59.5 11.5t41.5 22.5t26 31.5t15 44.5t6.5 54.5t1.5 69v416h-391l-112 -230 q-22 -43 -39 -105.5t-17 -101.5q0 -54 10 -90.5t37.5 -67t81.5 -45t137 -14.5v-12h-692zM612 680h383v756z" />
<glyph unicode="&#xc7;" horiz-adv-x="1679" d="M51 733q0 95 23.5 198t70 208t127 199.5t183.5 156.5q78 47 189.5 88t219.5 41q82 0 156.5 -21t120 -46.5t97.5 -46.5t95 -21q67 5 105 31.5t51 87.5h12v-772h-12q-6 72 -39.5 177t-85 215t-128 205t-157.5 134q-31 15 -86 29t-108 14q-68 0 -107 -27 q-205 -144 -205 -668v-241q0 -75 6.5 -145.5t22 -150.5t45.5 -145.5t73 -119.5t109 -84.5t148 -30.5q146 0 272 72q66 38 118 95t80.5 104t53 124t31.5 112t21 112q4 22 6 32h12q-12 -82 -24 -139.5t-37 -131t-57.5 -127.5t-86 -108t-123.5 -92q-125 -71 -280 -71l-80 -97 q161 0 237 -44t76 -97q0 -45 -77.5 -91t-145.5 -46q-57 0 -122 19.5t-101 49.5l6 9q48 -32 111 -48t104 -16q32 0 54 22t22 50q0 45 -62.5 67t-210.5 23l174 199h-45q-164 0 -305 43t-240 116t-169.5 169.5t-104 204.5t-33.5 220z" />
<glyph unicode="&#xc8;" horiz-adv-x="1611" d="M41 0v12h12q55 0 92.5 5t64 18.5t41 29t22.5 46t10 60t2 79.5v1104q0 50 -2 79.5t-10 59.5t-22.5 46t-41 29t-64 18t-92.5 5h-12v13h1389v-615h-13q0 91 -24 177.5t-85 174.5t-153 154q-82 59 -166.5 77.5t-232.5 18.5v-731q146 0 228.5 53.5t133.5 182.5q6 19 13.5 66.5 t7.5 92.5h14v-806h-14q0 44 -7.5 92.5t-13.5 64.5q-51 131 -133.5 185.5t-228.5 54.5v-596q0 -69 3 -109t8.5 -68t21 -39.5t33 -15.5t50.5 -4q178 0 248 33q88 40 148.5 86.5t110.5 121.5t77.5 187.5t34.5 268.5h12v-711h-1462zM518 2019q0 25 18.5 47.5t59.5 22.5 q39 0 67.5 -33.5t44 -78t42.5 -107t57 -103.5l-10 -8q-27 42 -78 78.5t-93.5 57t-75 53t-32.5 71.5z" />
<glyph unicode="&#xc9;" horiz-adv-x="1611" d="M41 0v12h12q55 0 92.5 5t64 18.5t41 29t22.5 46t10 60t2 79.5v1104q0 50 -2 79.5t-10 59.5t-22.5 46t-41 29t-64 18t-92.5 5h-12v13h1389v-615h-13q0 91 -24 177.5t-85 174.5t-153 154q-82 59 -166.5 77.5t-232.5 18.5v-731q146 0 228.5 53.5t133.5 182.5q6 19 13.5 66.5 t7.5 92.5h14v-806h-14q0 44 -7.5 92.5t-13.5 64.5q-51 131 -133.5 185.5t-228.5 54.5v-596q0 -69 3 -109t8.5 -68t21 -39.5t33 -15.5t50.5 -4q178 0 248 33q88 40 148.5 86.5t110.5 121.5t77.5 187.5t34.5 268.5h12v-711h-1462zM686 1767q30 41 57 103.5t42.5 107t44 78 t67.5 33.5q41 0 59.5 -22.5t18.5 -47.5q0 -39 -32.5 -71.5t-75 -53t-93.5 -57t-78 -78.5z" />
<glyph unicode="&#xca;" horiz-adv-x="1611" d="M41 0v12h12q55 0 92.5 5t64 18.5t41 29t22.5 46t10 60t2 79.5v1104q0 50 -2 79.5t-10 59.5t-22.5 46t-41 29t-64 18t-92.5 5h-12v13h1389v-615h-13q0 91 -24 177.5t-85 174.5t-153 154q-82 59 -166.5 77.5t-232.5 18.5v-731q146 0 228.5 53.5t133.5 182.5q6 19 13.5 66.5 t7.5 92.5h14v-806h-14q0 44 -7.5 92.5t-13.5 64.5q-51 131 -133.5 185.5t-228.5 54.5v-596q0 -69 3 -109t8.5 -68t21 -39.5t33 -15.5t50.5 -4q178 0 248 33q88 40 148.5 86.5t110.5 121.5t77.5 187.5t34.5 268.5h12v-711h-1462zM641 1772l272 251l273 -251l-6 -9l-267 123 l-266 -123z" />
<glyph unicode="&#xcb;" horiz-adv-x="1611" d="M41 0v12h12q55 0 92.5 5t64 18.5t41 29t22.5 46t10 60t2 79.5v1104q0 50 -2 79.5t-10 59.5t-22.5 46t-41 29t-64 18t-92.5 5h-12v13h1389v-615h-13q0 91 -24 177.5t-85 174.5t-153 154q-82 59 -166.5 77.5t-232.5 18.5v-731q146 0 228.5 53.5t133.5 182.5q6 19 13.5 66.5 t7.5 92.5h14v-806h-14q0 44 -7.5 92.5t-13.5 64.5q-51 131 -133.5 185.5t-228.5 54.5v-596q0 -69 3 -109t8.5 -68t21 -39.5t33 -15.5t50.5 -4q178 0 248 33q88 40 148.5 86.5t110.5 121.5t77.5 187.5t34.5 268.5h12v-711h-1462zM655 1858q0 38 29.5 67t67.5 29q40 0 69 -29 t29 -67q0 -40 -29 -69.5t-69 -29.5q-38 0 -67.5 29.5t-29.5 69.5zM940 1858q0 39 28.5 67.5t67.5 28.5q40 0 68.5 -29t28.5 -67q0 -40 -28.5 -69.5t-68.5 -29.5q-39 0 -67.5 29.5t-28.5 69.5z" />
<glyph unicode="&#xcc;" horiz-adv-x="1040" d="M41 0v12h12q55 0 92.5 5t64 18.5t41 29t22.5 46t10 60t2 79.5v1104q0 50 -2 79.5t-10 59.5t-22.5 46t-41 29t-64 18t-92.5 5h-12v13h958v-13h-14q-55 0 -92.5 -4.5t-63.5 -18.5t-40 -29t-21.5 -46t-9.5 -59.5t-2 -79.5v-1104q0 -43 1.5 -69t6 -54.5t14.5 -44.5t26 -31.5 t41 -22.5t59 -11.5t81 -4.5h14v-12h-958zM287 2019q0 25 18.5 47.5t59.5 22.5q39 0 67.5 -33.5t43.5 -78t42 -107t57 -103.5l-10 -8q-27 42 -78 78.5t-93 57t-74.5 53t-32.5 71.5z" />
<glyph unicode="&#xcd;" horiz-adv-x="1040" d="M41 0v12h12q55 0 92.5 5t64 18.5t41 29t22.5 46t10 60t2 79.5v1104q0 50 -2 79.5t-10 59.5t-22.5 46t-41 29t-64 18t-92.5 5h-12v13h958v-13h-14q-55 0 -92.5 -4.5t-63.5 -18.5t-40 -29t-21.5 -46t-9.5 -59.5t-2 -79.5v-1104q0 -43 1.5 -69t6 -54.5t14.5 -44.5t26 -31.5 t41 -22.5t59 -11.5t81 -4.5h14v-12h-958zM473 1767q30 41 57 103.5t42.5 107t44 78t67.5 33.5q41 0 59.5 -22.5t18.5 -47.5q0 -39 -32.5 -71.5t-75 -53t-93.5 -57t-78 -78.5z" />
<glyph unicode="&#xce;" horiz-adv-x="1040" d="M41 0v12h12q55 0 92.5 5t64 18.5t41 29t22.5 46t10 60t2 79.5v1104q0 50 -2 79.5t-10 59.5t-22.5 46t-41 29t-64 18t-92.5 5h-12v13h958v-13h-14q-55 0 -92.5 -4.5t-63.5 -18.5t-40 -29t-21.5 -46t-9.5 -59.5t-2 -79.5v-1104q0 -43 1.5 -69t6 -54.5t14.5 -44.5t26 -31.5 t41 -22.5t59 -11.5t81 -4.5h14v-12h-958zM258 1772l272 251l273 -251l-6 -9l-267 123l-266 -123z" />
<glyph unicode="&#xcf;" horiz-adv-x="1040" d="M41 0v12h12q55 0 92.5 5t64 18.5t41 29t22.5 46t10 60t2 79.5v1104q0 50 -2 79.5t-10 59.5t-22.5 46t-41 29t-64 18t-92.5 5h-12v13h958v-13h-14q-55 0 -92.5 -4.5t-63.5 -18.5t-40 -29t-21.5 -46t-9.5 -59.5t-2 -79.5v-1104q0 -43 1.5 -69t6 -54.5t14.5 -44.5t26 -31.5 t41 -22.5t59 -11.5t81 -4.5h14v-12h-958zM338 1858q0 39 28.5 67.5t67.5 28.5t67.5 -28.5t28.5 -67.5q0 -40 -28.5 -69.5t-67.5 -29.5t-67.5 29.5t-28.5 69.5zM621 1858q0 38 29 67t67 29q40 0 69 -29t29 -67q0 -40 -29 -69.5t-69 -29.5q-38 0 -67 29.5t-29 69.5z" />
<glyph unicode="&#xd0;" horiz-adv-x="1816" d="M27 0v12h14q47 0 81 4.5t59 11.5t41 22.5t26 31.5t14.5 44.5t6 54.5t1.5 69v594h-190v20h190v490q0 51 -2 79.5t-9.5 59.5t-21.5 46t-40 29t-63.5 18.5t-92.5 4.5h-14v13h870q73 0 119 -1.5t112 -9.5t111.5 -22.5t103 -42.5t103 -67.5t95 -99t93.5 -136.5 q101 -177 101 -426q0 -133 -30.5 -259.5t-84.5 -220.5q-30 -52 -64.5 -94.5t-67 -73.5t-74.5 -55.5t-75.5 -40t-81 -26.5t-79.5 -16.5t-83.5 -8.5t-80.5 -3.5t-82 -0.5h-905zM741 250q0 -64 3 -99.5t11 -66.5t26.5 -44.5t46.5 -20.5t73 -7q51 0 104.5 8.5t75.5 18.5 q33 16 56 43t38.5 76.5t24.5 102t13.5 146t6 181t1.5 231.5q0 318 -14 450t-72 216q-45 65 -114.5 85.5t-160.5 20.5h-119v-727h172v-20h-172v-594z" />
<glyph unicode="&#xd1;" horiz-adv-x="1708" d="M41 0v12h20q143 0 191.5 82.5t48.5 290.5v969q0 51 -2 79.5t-9.5 59.5t-21.5 46t-40 29t-63.5 18.5t-92.5 4.5h-15v13h750l594 -1164v779q0 208 -48.5 290t-191.5 82h-20v13h534v-13h-22q-74 0 -120 -19.5t-72 -67.5t-35 -113.5t-9 -171.5v-1219h-373l-727 1409v-1024 q0 -106 9 -171.5t35 -113.5t72 -68t120 -20h22v-12h-534zM713 1772q11 37 23 64t32 54t50.5 41.5t70.5 14.5q44 0 150 -28t145 -28q28 0 46 10t44 37h14q-69 -174 -182 -174q-34 0 -159 32t-138 32q-46 0 -86 -55h-10z" />
<glyph unicode="&#xd2;" horiz-adv-x="1753" d="M78 801q0 132 39.5 256.5t112.5 226.5t170.5 179.5t220 120t253.5 42.5t254 -42.5t220.5 -120t171 -179t113.5 -226.5t40 -257q0 -165 -62.5 -317t-169 -263.5t-255 -178.5t-312.5 -67q-218 0 -402 113t-289 303t-105 410zM578 664q0 -78 1.5 -135.5t8.5 -132t19 -127.5 t33.5 -108.5t52 -90t76.5 -56.5t103 -22t103 22t76.5 56.5t52.5 89.5t34 108.5t19 128t8.5 132.5t1.5 135v137v137q0 78 -1.5 136.5t-8.5 133t-19 128t-34 109.5t-52.5 90.5t-76.5 56.5t-103 22q-50 0 -91.5 -15.5t-71 -47t-52 -69t-36.5 -91t-23 -102.5t-13 -115t-5.5 -117 t-1.5 -119v-137v-137zM670 2019q0 25 18.5 47.5t59.5 22.5q39 0 67.5 -33.5t43.5 -78t42 -107t57 -103.5l-10 -8q-27 42 -78 78.5t-93 57t-74.5 53t-32.5 71.5z" />
<glyph unicode="&#xd3;" horiz-adv-x="1753" d="M78 801q0 132 39.5 256.5t112.5 226.5t170.5 179.5t220 120t253.5 42.5t254 -42.5t220.5 -120t171 -179t113.5 -226.5t40 -257q0 -165 -62.5 -317t-169 -263.5t-255 -178.5t-312.5 -67q-218 0 -402 113t-289 303t-105 410zM578 664q0 -78 1.5 -135.5t8.5 -132t19 -127.5 t33.5 -108.5t52 -90t76.5 -56.5t103 -22t103 22t76.5 56.5t52.5 89.5t34 108.5t19 128t8.5 132.5t1.5 135v137v137q0 78 -1.5 136.5t-8.5 133t-19 128t-34 109.5t-52.5 90.5t-76.5 56.5t-103 22q-50 0 -91.5 -15.5t-71 -47t-52 -69t-36.5 -91t-23 -102.5t-13 -115t-5.5 -117 t-1.5 -119v-137v-137zM803 1767q30 41 57 103.5t42.5 107t44 78t67.5 33.5q41 0 59.5 -22.5t18.5 -47.5q0 -39 -32.5 -71.5t-75 -53t-93.5 -57t-78 -78.5z" />
<glyph unicode="&#xd4;" horiz-adv-x="1753" d="M78 801q0 132 39.5 256.5t112.5 226.5t170.5 179.5t220 120t253.5 42.5t254 -42.5t220.5 -120t171 -179t113.5 -226.5t40 -257q0 -165 -62.5 -317t-169 -263.5t-255 -178.5t-312.5 -67q-218 0 -402 113t-289 303t-105 410zM578 664q0 -78 1.5 -135.5t8.5 -132t19 -127.5 t33.5 -108.5t52 -90t76.5 -56.5t103 -22t103 22t76.5 56.5t52.5 89.5t34 108.5t19 128t8.5 132.5t1.5 135v137v137q0 78 -1.5 136.5t-8.5 133t-19 128t-34 109.5t-52.5 90.5t-76.5 56.5t-103 22q-50 0 -91.5 -15.5t-71 -47t-52 -69t-36.5 -91t-23 -102.5t-13 -115t-5.5 -117 t-1.5 -119v-137v-137zM600 1772l272 251l273 -251l-6 -9l-267 123l-264 -123z" />
<glyph unicode="&#xd5;" horiz-adv-x="1753" d="M78 801q0 132 39.5 256.5t112.5 226.5t170.5 179.5t220 120t253.5 42.5t254 -42.5t220.5 -120t171 -179t113.5 -226.5t40 -257q0 -165 -62.5 -317t-169 -263.5t-255 -178.5t-312.5 -67q-218 0 -402 113t-289 303t-105 410zM578 664q0 -78 1.5 -135.5t8.5 -132t19 -127.5 t33.5 -108.5t52 -90t76.5 -56.5t103 -22t103 22t76.5 56.5t52.5 89.5t34 108.5t19 128t8.5 132.5t1.5 135v137v137q0 78 -1.5 136.5t-8.5 133t-19 128t-34 109.5t-52.5 90.5t-76.5 56.5t-103 22q-50 0 -91.5 -15.5t-71 -47t-52 -69t-36.5 -91t-23 -102.5t-13 -115t-5.5 -117 t-1.5 -119v-137v-137zM676 1772q11 37 23 64t32 54t50.5 41.5t70.5 14.5q44 0 150 -28t145 -28q28 0 46 10t44 37h14q-69 -174 -182 -174q-34 0 -159 32t-138 32q-46 0 -86 -55h-10z" />
<glyph unicode="&#xd6;" horiz-adv-x="1753" d="M78 801q0 132 39.5 256.5t112.5 226.5t170.5 179.5t220 120t253.5 42.5t254 -42.5t220.5 -120t171 -179t113.5 -226.5t40 -257q0 -165 -62.5 -317t-169 -263.5t-255 -178.5t-312.5 -67q-218 0 -402 113t-289 303t-105 410zM578 664q0 -78 1.5 -135.5t8.5 -132t19 -127.5 t33.5 -108.5t52 -90t76.5 -56.5t103 -22t103 22t76.5 56.5t52.5 89.5t34 108.5t19 128t8.5 132.5t1.5 135v137v137q0 78 -1.5 136.5t-8.5 133t-19 128t-34 109.5t-52.5 90.5t-76.5 56.5t-103 22q-50 0 -91.5 -15.5t-71 -47t-52 -69t-36.5 -91t-23 -102.5t-13 -115t-5.5 -117 t-1.5 -119v-137v-137zM655 1858q0 38 29.5 67t67.5 29q40 0 69 -29t29 -67q0 -40 -29 -69.5t-69 -29.5q-38 0 -67.5 29.5t-29.5 69.5zM940 1858q0 39 28.5 67.5t67.5 28.5q40 0 68.5 -29t28.5 -67q0 -40 -28.5 -69.5t-68.5 -29.5q-39 0 -67.5 29.5t-28.5 69.5z" />
<glyph unicode="&#xd8;" horiz-adv-x="1796" d="M84 10l235 236q-98 112 -152 255.5t-54 299.5q0 132 39.5 256.5t112.5 226.5t170.5 179.5t220 120t253.5 42.5q161 0 304 -62t253 -173l217 215l11 -9l-217 -217q109 -114 170 -264t61 -315t-62.5 -317t-169 -263.5t-255 -178.5t-312.5 -67q-170 0 -319.5 69t-259.5 192 l-236 -234zM612 664q0 -84 2 -125l584 583q-5 106 -20 186.5t-46 153.5t-88 112.5t-137 39.5q-57 0 -103 -22t-76.5 -56.5t-52.5 -90.5t-34 -109.5t-19 -128t-8.5 -133t-1.5 -136.5v-137v-137zM614 520q3 -73 9 -132.5t18.5 -122.5t34.5 -110t52.5 -85t76 -58t102.5 -20 t103 22t76.5 56.5t52.5 89.5t34 108.5t19 128t8.5 132.5t1.5 135v137v137q0 111 -2 166z" />
<glyph unicode="&#xd9;" horiz-adv-x="1734" d="M55 1591v13h959v-13h-13q-55 0 -92.5 -4.5t-63.5 -18t-41 -29t-22.5 -46t-9.5 -60t-2 -79.5v-940q0 -165 15 -221.5t79 -92.5q78 -43 223 -43q137 0 211 41q92 53 117 123t25 236v768q0 60 -1.5 95.5t-6.5 79.5t-15.5 69t-29 51.5t-46 40t-67 22t-92.5 8.5v13h532v-13 q-53 0 -92.5 -8.5t-67 -22t-46 -40t-29 -51.5t-15.5 -69t-6.5 -79.5t-1.5 -95.5v-776q0 -52 -1 -81.5t-4.5 -67.5t-11 -60.5t-20.5 -50t-33.5 -47.5t-48.5 -42.5t-67 -44.5q-130 -75 -352 -75q-121 0 -234.5 24t-189.5 66q-54 30 -91 65t-57.5 67.5t-31 79.5t-13 84.5 t-2.5 98.5v889q0 51 -2 79.5t-9.5 59.5t-21.5 46t-40 29t-63.5 18.5t-92.5 4.5h-15zM801 2019q0 25 18.5 47.5t59.5 22.5q39 0 67.5 -33.5t44 -78t42.5 -107t57 -103.5l-11 -8q-27 42 -78 78.5t-93 57t-74.5 53t-32.5 71.5z" />
<glyph unicode="&#xda;" horiz-adv-x="1734" d="M55 1591v13h959v-13h-13q-55 0 -92.5 -4.5t-63.5 -18t-41 -29t-22.5 -46t-9.5 -60t-2 -79.5v-940q0 -165 15 -221.5t79 -92.5q78 -43 223 -43q137 0 211 41q92 53 117 123t25 236v768q0 60 -1.5 95.5t-6.5 79.5t-15.5 69t-29 51.5t-46 40t-67 22t-92.5 8.5v13h532v-13 q-53 0 -92.5 -8.5t-67 -22t-46 -40t-29 -51.5t-15.5 -69t-6.5 -79.5t-1.5 -95.5v-776q0 -52 -1 -81.5t-4.5 -67.5t-11 -60.5t-20.5 -50t-33.5 -47.5t-48.5 -42.5t-67 -44.5q-130 -75 -352 -75q-121 0 -234.5 24t-189.5 66q-54 30 -91 65t-57.5 67.5t-31 79.5t-13 84.5 t-2.5 98.5v889q0 51 -2 79.5t-9.5 59.5t-21.5 46t-40 29t-63.5 18.5t-92.5 4.5h-15zM901 1767q30 41 57 103.5t42.5 107t44 78t67.5 33.5q41 0 59.5 -22.5t18.5 -47.5q0 -39 -32.5 -71.5t-75 -53t-93.5 -57t-78 -78.5z" />
<glyph unicode="&#xdb;" horiz-adv-x="1734" d="M55 1591v13h959v-13h-13q-55 0 -92.5 -4.5t-63.5 -18t-41 -29t-22.5 -46t-9.5 -60t-2 -79.5v-940q0 -165 15 -221.5t79 -92.5q78 -43 223 -43q137 0 211 41q92 53 117 123t25 236v768q0 60 -1.5 95.5t-6.5 79.5t-15.5 69t-29 51.5t-46 40t-67 22t-92.5 8.5v13h532v-13 q-53 0 -92.5 -8.5t-67 -22t-46 -40t-29 -51.5t-15.5 -69t-6.5 -79.5t-1.5 -95.5v-776q0 -52 -1 -81.5t-4.5 -67.5t-11 -60.5t-20.5 -50t-33.5 -47.5t-48.5 -42.5t-67 -44.5q-130 -75 -352 -75q-121 0 -234.5 24t-189.5 66q-54 30 -91 65t-57.5 67.5t-31 79.5t-13 84.5 t-2.5 98.5v889q0 51 -2 79.5t-9.5 59.5t-21.5 46t-40 29t-63.5 18.5t-92.5 4.5h-15zM756 1772l272 251l272 -251l-8 -9l-264 123l-266 -123z" />
<glyph unicode="&#xdc;" horiz-adv-x="1734" d="M55 1591v13h959v-13h-13q-55 0 -92.5 -4.5t-63.5 -18t-41 -29t-22.5 -46t-9.5 -60t-2 -79.5v-940q0 -165 15 -221.5t79 -92.5q78 -43 223 -43q137 0 211 41q92 53 117 123t25 236v768q0 60 -1.5 95.5t-6.5 79.5t-15.5 69t-29 51.5t-46 40t-67 22t-92.5 8.5v13h532v-13 q-53 0 -92.5 -8.5t-67 -22t-46 -40t-29 -51.5t-15.5 -69t-6.5 -79.5t-1.5 -95.5v-776q0 -52 -1 -81.5t-4.5 -67.5t-11 -60.5t-20.5 -50t-33.5 -47.5t-48.5 -42.5t-67 -44.5q-130 -75 -352 -75q-121 0 -234.5 24t-189.5 66q-54 30 -91 65t-57.5 67.5t-31 79.5t-13 84.5 t-2.5 98.5v889q0 51 -2 79.5t-9.5 59.5t-21.5 46t-40 29t-63.5 18.5t-92.5 4.5h-15zM805 1858q0 38 29 67t67 29q40 0 69 -29t29 -67q0 -40 -29 -69.5t-69 -29.5q-38 0 -67 29.5t-29 69.5zM1090 1858q0 39 28.5 67.5t67.5 28.5t67.5 -28.5t28.5 -67.5q0 -40 -28.5 -69.5 t-67.5 -29.5t-67.5 29.5t-28.5 69.5z" />
<glyph unicode="&#xde;" horiz-adv-x="1560" d="M66 0v12h12q47 0 81 4.5t59.5 11.5t41.5 22.5t26 31.5t15 44.5t6.5 54.5t1.5 69v1104q0 72 -7.5 112.5t-32 71t-69.5 42t-122 11.5h-12v13h958v-13h-14q-55 0 -92.5 -5t-64 -18t-41 -29t-22.5 -46t-10 -59.5t-2 -79.5q88 10 152 10q52 0 123 -6q121 -12 228 -70t176 -158 t69 -217t-69 -216.5t-176 -157.5t-228 -70q-71 -6 -123 -6q-64 0 -152 10v-223q0 -50 2 -79.5t10 -60t22.5 -46t41 -29t64 -18.5t92.5 -5h14v-12h-958zM778 487q70 -8 105 -8q76 0 118 33q38 29 53 83.5t15 141.5v353q0 87 -15 141.5t-53 83.5q-42 33 -118 33q-26 0 -105 -9 v-852z" />
<glyph unicode="&#xdf;" horiz-adv-x="1185" d="M68 0v12q112 0 143 38t31 163v850h-121v14h121v35q0 115 30 200.5t78 136.5t120 82t145 41.5t165 10.5q103 0 200 -24.5t178.5 -70.5t131 -123t49.5 -173q0 -131 -87 -238t-197 -137q191 -33 305.5 -127t114.5 -252q0 -129 -78.5 -232.5t-199.5 -157.5t-257 -54 q-48 0 -114 21.5t-70 21.5q-33 0 -43 -35h-15v381h13q23 -181 58 -261q48 -105 124 -106q91 0 133 86q53 109 53 332q0 129 -18 210.5t-70 117.5q-59 41 -147 41h-86v20q15 0 38.5 -1t37.5 -1q106 0 139 37q55 66 55 336q0 136 -17 218t-65 122q-43 37 -119 37 q-71 0 -106 -41q-66 -73 -66 -260v-1270h-587z" />
<glyph unicode="&#xe0;" d="M55 262q0 40 15 94q9 31 23 55t26.5 40.5t35.5 30.5t38 21.5t47 15.5t49.5 11.5t58.5 10.5l49 8q78 13 133.5 38.5t84.5 53t45 69t19 71.5t3 75q0 58 -8.5 98.5t-20.5 63t-33 35t-39.5 15.5t-45.5 3q-23 0 -46.5 -3t-58.5 -12t-63.5 -32.5t-42.5 -58.5q16 8 45 8 q63 0 117.5 -45t54.5 -125q0 -88 -63.5 -144.5t-143.5 -56.5q-79 0 -139 57.5t-60 147.5q0 83 64 148t170.5 100t234.5 35q218 0 348 -91q48 -34 78.5 -73.5t43.5 -86.5t16.5 -83t3.5 -90v-535v-18.5t1 -19t3 -20.5t5 -15.5t9 -12.5t14 -4q10 0 21.5 7.5t26 27.5t26.5 49.5 t20.5 79.5t10.5 112h14q0 -26 -4 -61t-13.5 -83.5t-32.5 -89.5t-56 -58q-68 -39 -166 -39q-63 0 -109 18q-84 33 -120.5 76.5t-61.5 136.5q-54 -169 -162 -213q-36 -14 -112 -14q-353 0 -353 272zM385 1477q0 25 18.5 47t59.5 22q39 0 67.5 -33.5t44 -77.5t42.5 -106.5 t57 -103.5l-10 -8q-27 42 -78 78.5t-93.5 57t-75 53t-32.5 71.5zM453 291q0 -41 8 -139q1 -23 3 -37.5t7 -36.5t17 -33.5t30 -11.5q27 0 41 14q42 27 68 72t36.5 108t13.5 111t3 123v264q-5 -33 -24 -58.5t-38 -39.5q-71 -53 -98.5 -80t-39 -56.5t-19.5 -91.5 q-8 -55 -8 -108z" />
<glyph unicode="&#xe1;" d="M55 262q0 40 15 94q9 31 23 55t26.5 40.5t35.5 30.5t38 21.5t47 15.5t49.5 11.5t58.5 10.5l49 8q78 13 133.5 38.5t84.5 53t45 69t19 71.5t3 75q0 58 -8.5 98.5t-20.5 63t-33 35t-39.5 15.5t-45.5 3q-23 0 -46.5 -3t-58.5 -12t-63.5 -32.5t-42.5 -58.5q16 8 45 8 q63 0 117.5 -45t54.5 -125q0 -88 -63.5 -144.5t-143.5 -56.5q-79 0 -139 57.5t-60 147.5q0 83 64 148t170.5 100t234.5 35q218 0 348 -91q48 -34 78.5 -73.5t43.5 -86.5t16.5 -83t3.5 -90v-535v-18.5t1 -19t3 -20.5t5 -15.5t9 -12.5t14 -4q10 0 21.5 7.5t26 27.5t26.5 49.5 t20.5 79.5t10.5 112h14q0 -26 -4 -61t-13.5 -83.5t-32.5 -89.5t-56 -58q-68 -39 -166 -39q-63 0 -109 18q-84 33 -120.5 76.5t-61.5 136.5q-54 -169 -162 -213q-36 -14 -112 -14q-353 0 -353 272zM453 291q0 -41 8 -139q1 -23 3 -37.5t7 -36.5t17 -33.5t30 -11.5q27 0 41 14 q42 27 68 72t36.5 108t13.5 111t3 123v264q-5 -33 -24 -58.5t-38 -39.5q-71 -53 -98.5 -80t-39 -56.5t-19.5 -91.5q-8 -55 -8 -108zM592 1219q29 41 56 104.5t42 107.5t44 77.5t69 33.5q33 0 55.5 -19t22.5 -48q0 -32 -19 -57.5t-51.5 -46.5t-68 -41t-75.5 -51t-67 -67z" />
<glyph unicode="&#xe2;" d="M55 262q0 40 15 94q9 31 23 55t26.5 40.5t35.5 30.5t38 21.5t47 15.5t49.5 11.5t58.5 10.5l49 8q78 13 133.5 38.5t84.5 53t45 69t19 71.5t3 75q0 58 -8.5 98.5t-20.5 63t-33 35t-39.5 15.5t-45.5 3q-23 0 -46.5 -3t-58.5 -12t-63.5 -32.5t-42.5 -58.5q16 8 45 8 q63 0 117.5 -45t54.5 -125q0 -88 -63.5 -144.5t-143.5 -56.5q-79 0 -139 57.5t-60 147.5q0 83 64 148t170.5 100t234.5 35q218 0 348 -91q48 -34 78.5 -73.5t43.5 -86.5t16.5 -83t3.5 -90v-535v-18.5t1 -19t3 -20.5t5 -15.5t9 -12.5t14 -4q10 0 21.5 7.5t26 27.5t26.5 49.5 t20.5 79.5t10.5 112h14q0 -26 -4 -61t-13.5 -83.5t-32.5 -89.5t-56 -58q-68 -39 -166 -39q-63 0 -109 18q-84 33 -120.5 76.5t-61.5 136.5q-54 -169 -162 -213q-36 -14 -112 -14q-353 0 -353 272zM371 1227l272 252l272 -252l-6 -10l-266 124l-266 -124zM453 291 q0 -41 8 -139q1 -23 3 -37.5t7 -36.5t17 -33.5t30 -11.5q27 0 41 14q42 27 68 72t36.5 108t13.5 111t3 123v264q-5 -33 -24 -58.5t-38 -39.5q-71 -53 -98.5 -80t-39 -56.5t-19.5 -91.5q-8 -55 -8 -108z" />
<glyph unicode="&#xe3;" d="M55 262q0 40 15 94q9 31 23 55t26.5 40.5t35.5 30.5t38 21.5t47 15.5t49.5 11.5t58.5 10.5l49 8q78 13 133.5 38.5t84.5 53t45 69t19 71.5t3 75q0 58 -8.5 98.5t-20.5 63t-33 35t-39.5 15.5t-45.5 3q-23 0 -46.5 -3t-58.5 -12t-63.5 -32.5t-42.5 -58.5q16 8 45 8 q63 0 117.5 -45t54.5 -125q0 -88 -63.5 -144.5t-143.5 -56.5q-79 0 -139 57.5t-60 147.5q0 83 64 148t170.5 100t234.5 35q218 0 348 -91q48 -34 78.5 -73.5t43.5 -86.5t16.5 -83t3.5 -90v-535v-18.5t1 -19t3 -20.5t5 -15.5t9 -12.5t14 -4q10 0 21.5 7.5t26 27.5t26.5 49.5 t20.5 79.5t10.5 112h14q0 -26 -4 -61t-13.5 -83.5t-32.5 -89.5t-56 -58q-68 -39 -166 -39q-63 0 -109 18q-84 33 -120.5 76.5t-61.5 136.5q-54 -169 -162 -213q-36 -14 -112 -14q-353 0 -353 272zM367 1221q11 37 23 64t32 54t50.5 41.5t70.5 14.5q44 0 150 -28t145 -28 q28 0 46 10t44 37h14q-69 -174 -182 -174q-34 0 -159 32t-138 32q-46 0 -86 -55h-10zM453 291q0 -41 8 -139q1 -23 3 -37.5t7 -36.5t17 -33.5t30 -11.5q27 0 41 14q42 27 68 72t36.5 108t13.5 111t3 123v264q-5 -33 -24 -58.5t-38 -39.5q-71 -53 -98.5 -80t-39 -56.5 t-19.5 -91.5q-8 -55 -8 -108z" />
<glyph unicode="&#xe4;" d="M55 262q0 40 15 94q9 31 23 55t26.5 40.5t35.5 30.5t38 21.5t47 15.5t49.5 11.5t58.5 10.5l49 8q78 13 133.5 38.5t84.5 53t45 69t19 71.5t3 75q0 58 -8.5 98.5t-20.5 63t-33 35t-39.5 15.5t-45.5 3q-23 0 -46.5 -3t-58.5 -12t-63.5 -32.5t-42.5 -58.5q16 8 45 8 q63 0 117.5 -45t54.5 -125q0 -88 -63.5 -144.5t-143.5 -56.5q-79 0 -139 57.5t-60 147.5q0 83 64 148t170.5 100t234.5 35q218 0 348 -91q48 -34 78.5 -73.5t43.5 -86.5t16.5 -83t3.5 -90v-535v-18.5t1 -19t3 -20.5t5 -15.5t9 -12.5t14 -4q10 0 21.5 7.5t26 27.5t26.5 49.5 t20.5 79.5t10.5 112h14q0 -26 -4 -61t-13.5 -83.5t-32.5 -89.5t-56 -58q-68 -39 -166 -39q-63 0 -109 18q-84 33 -120.5 76.5t-61.5 136.5q-54 -169 -162 -213q-36 -14 -112 -14q-353 0 -353 272zM416 1309q0 40 29 69t69 29q38 0 67 -29t29 -69q0 -38 -29 -67.5t-67 -29.5 q-40 0 -69 29t-29 68zM453 291q0 -41 8 -139q1 -23 3 -37.5t7 -36.5t17 -33.5t30 -11.5q27 0 41 14q42 27 68 72t36.5 108t13.5 111t3 123v264q-5 -33 -24 -58.5t-38 -39.5q-71 -53 -98.5 -80t-39 -56.5t-19.5 -91.5q-8 -55 -8 -108zM700 1309q0 40 28.5 69t68.5 29t68 -29 t28 -69q0 -39 -28.5 -68t-67.5 -29t-68 29t-29 68z" />
<glyph unicode="&#xe5;" d="M55 262q0 40 15 94q9 31 23 55t26.5 40.5t35.5 30.5t38 21.5t47 15.5t49.5 11.5t58.5 10.5l49 8q78 13 133.5 38.5t84.5 53t45 69t19 71.5t3 75q0 58 -8.5 98.5t-20.5 63t-33 35t-39.5 15.5t-45.5 3q-23 0 -46.5 -3t-58.5 -12t-63.5 -32.5t-42.5 -58.5q16 8 45 8 q63 0 117.5 -45t54.5 -125q0 -88 -63.5 -144.5t-143.5 -56.5q-79 0 -139 57.5t-60 147.5q0 83 64 148t170.5 100t234.5 35q218 0 348 -91q48 -34 78.5 -73.5t43.5 -86.5t16.5 -83t3.5 -90v-535v-18.5t1 -19t3 -20.5t5 -15.5t9 -12.5t14 -4q10 0 21.5 7.5t26 27.5t26.5 49.5 t20.5 79.5t10.5 112h14q0 -26 -4 -61t-13.5 -83.5t-32.5 -89.5t-56 -58q-68 -39 -166 -39q-63 0 -109 18q-84 33 -120.5 76.5t-61.5 136.5q-54 -169 -162 -213q-36 -14 -112 -14q-353 0 -353 272zM453 291q0 -41 8 -139q1 -23 3 -37.5t7 -36.5t17 -33.5t30 -11.5q27 0 41 14 q42 27 68 72t36.5 108t13.5 111t3 123v264q-5 -33 -24 -58.5t-38 -39.5q-71 -53 -98.5 -80t-39 -56.5t-19.5 -91.5q-8 -55 -8 -108zM516 1380q0 68 52 117t110 49t110 -49t52 -117t-52 -115.5t-110 -47.5t-110 47.5t-52 115.5zM621 1321q0 -47 15 -71.5t42 -24.5t42 24.5 t15 71.5v119q0 96 -57 96t-57 -96v-119z" />
<glyph unicode="&#xe6;" horiz-adv-x="1777" d="M55 262q0 40 15 94q9 31 23 55t26.5 40.5t35.5 30.5t38 21.5t47 15.5t49.5 11.5t58.5 10.5l49 8q78 13 133.5 38.5t84.5 53t45 69t19 71.5t3 75q0 58 -8.5 98.5t-20.5 63t-33 35t-39.5 15.5t-45.5 3q-23 0 -46.5 -3t-58.5 -12t-63.5 -32.5t-42.5 -58.5q16 8 45 8 q63 0 117.5 -45t54.5 -125q0 -88 -63.5 -144.5t-143.5 -56.5q-79 0 -139 57.5t-60 147.5q0 83 64 148t170.5 100t234.5 35q212 0 340 -84q128 84 293 84q323 0 442 -310q29 -79 29 -231h-614v-125q0 -103 10.5 -175.5t36.5 -129t72.5 -84t115.5 -27.5q79 0 146 39.5 t111.5 104t72.5 141t37 156.5h14q-6 -49 -17.5 -96.5t-35 -109t-68 -116t-104.5 -90.5q-80 -49 -232 -49q-105 0 -192 22.5t-146.5 59t-105 87.5t-71 103t-40.5 111q-1 -94 -20.5 -166t-51 -112t-56.5 -59.5t-50 -29.5q-36 -14 -112 -14q-353 0 -353 272zM453 291 q0 -41 8 -139q1 -23 3 -37.5t7 -36.5t17 -33.5t30 -11.5q27 0 41 14q42 27 68 72t36.5 108t13.5 111t3 123v264q-5 -33 -24 -58.5t-38 -39.5q-71 -53 -98.5 -80t-39 -56.5t-19.5 -91.5q-8 -55 -8 -108zM1094 563h239q6 120 6 262q0 100 -10.5 153.5t-50.5 88.5 q-10 10 -45 10q-80 0 -109.5 -94t-29.5 -317v-103z" />
<glyph unicode="&#xe7;" horiz-adv-x="1187" d="M68 520q0 98 44 198t122 183.5t198.5 136t259.5 52.5q34 0 64.5 -3.5t56 -11.5t43.5 -14.5t38 -19.5t29 -19.5t26 -20.5t20 -16q118 -111 118 -217q0 -27 -6 -56.5t-21.5 -62.5t-39.5 -59t-64.5 -43t-91.5 -17q-100 0 -166.5 62t-66.5 160q0 94 62 151.5t167 57.5 q62 0 96 -19q-18 41 -51.5 69.5t-72.5 40t-65.5 15.5t-49.5 4q-64 0 -107 -36.5t-67 -112.5t-33.5 -176t-9.5 -244q0 -56 1 -93.5t5.5 -94.5t13.5 -95t26 -82t41 -70t60.5 -43.5t83.5 -17.5q74 0 138 34.5t106 86t72 113.5t43.5 116t13.5 93h14q-4 -31 -10 -63.5 t-20.5 -79.5t-34 -88t-52 -84.5t-72 -74t-96.5 -50t-124 -19.5l-80 -96q84 0 148.5 -14t98.5 -36t50 -44.5t16 -45.5q0 -45 -73.5 -92t-151.5 -47q-45 0 -111 17.5t-110 54.5l6 8q47 -32 108.5 -48t100.5 -16q42 0 62 23.5t20 50.5q0 86 -273 86l174 199q-105 0 -205.5 18.5 t-158.5 52.5q-128 74 -195 200t-67 259z" />
<glyph unicode="&#xe8;" horiz-adv-x="1165" d="M68 510q0 250 198 442q73 70 167.5 104t191.5 34q323 0 442 -310q29 -79 29 -231h-615v-125q0 -103 10.5 -175.5t36.5 -129t73 -84t116 -27.5q79 0 146 39.5t111.5 104t72 141t36.5 156.5h15q-6 -49 -17.5 -97t-35.5 -109t-68.5 -115.5t-104.5 -90.5q-80 -49 -231 -49 q-132 0 -235.5 35.5t-165 89.5t-102 126t-55.5 138t-15 133zM358 1477q0 25 18.5 47t59.5 22q39 0 67.5 -33.5t44 -77.5t42.5 -106.5t57 -103.5l-10 -8q-27 42 -78 78.5t-93.5 57t-75 53t-32.5 71.5zM481 563h240q6 120 6 262q0 100 -10.5 153.5t-50.5 88.5q-10 10 -45 10 q-84 0 -112 -102.5t-28 -351.5v-60z" />
<glyph unicode="&#xe9;" horiz-adv-x="1165" d="M68 510q0 250 198 442q73 70 167.5 104t191.5 34q323 0 442 -310q29 -79 29 -231h-615v-125q0 -103 10.5 -175.5t36.5 -129t73 -84t116 -27.5q79 0 146 39.5t111.5 104t72 141t36.5 156.5h15q-6 -49 -17.5 -97t-35.5 -109t-68.5 -115.5t-104.5 -90.5q-80 -49 -231 -49 q-132 0 -235.5 35.5t-165 89.5t-102 126t-55.5 138t-15 133zM481 563h240q6 120 6 262q0 100 -10.5 153.5t-50.5 88.5q-10 10 -45 10q-84 0 -112 -102.5t-28 -351.5v-60zM545 1219q29 41 56 104.5t42 107.5t44 77.5t69 33.5q33 0 55.5 -19t22.5 -48q0 -32 -19 -57.5 t-51.5 -46.5t-68 -41t-75.5 -51t-67 -67z" />
<glyph unicode="&#xea;" horiz-adv-x="1165" d="M68 510q0 250 198 442q73 70 167.5 104t191.5 34q323 0 442 -310q29 -79 29 -231h-615v-125q0 -103 10.5 -175.5t36.5 -129t73 -84t116 -27.5q79 0 146 39.5t111.5 104t72 141t36.5 156.5h15q-6 -49 -17.5 -97t-35.5 -109t-68.5 -115.5t-104.5 -90.5q-80 -49 -231 -49 q-132 0 -235.5 35.5t-165 89.5t-102 126t-55.5 138t-15 133zM346 1227l272 252l273 -252l-6 -10l-267 124l-266 -124zM481 563h240q6 120 6 262q0 100 -10.5 153.5t-50.5 88.5q-10 10 -45 10q-84 0 -112 -102.5t-28 -351.5v-60z" />
<glyph unicode="&#xeb;" horiz-adv-x="1165" d="M68 510q0 250 198 442q73 70 167.5 104t191.5 34q323 0 442 -310q29 -79 29 -231h-615v-125q0 -103 10.5 -175.5t36.5 -129t73 -84t116 -27.5q79 0 146 39.5t111.5 104t72 141t36.5 156.5h15q-6 -49 -17.5 -97t-35.5 -109t-68.5 -115.5t-104.5 -90.5q-80 -49 -231 -49 q-132 0 -235.5 35.5t-165 89.5t-102 126t-55.5 138t-15 133zM393 1309q0 40 29.5 69t69.5 29q38 0 67 -29t29 -69q0 -38 -29 -67.5t-67 -29.5q-40 0 -69.5 29.5t-29.5 67.5zM481 563h240q6 120 6 262q0 100 -10.5 153.5t-50.5 88.5q-10 10 -45 10q-84 0 -112 -102.5 t-28 -351.5v-60zM678 1309q0 40 28 69t68 29t68 -29t28 -69q0 -39 -28.5 -68t-67.5 -29t-67.5 29t-28.5 68z" />
<glyph unicode="&#xec;" horiz-adv-x="800" d="M20 0v12q49 0 80 7t50.5 19.5t29 39t12.5 55.5t3 80v655q0 63 -4.5 95.5t-23 58t-52.5 33.5t-95 8v14h588v-864q0 -43 1.5 -68.5t7.5 -51t17 -38.5t30.5 -24t47.5 -15t68 -4v-12h-760zM166 1477q0 25 18.5 47t59.5 22q39 0 67.5 -33.5t44 -77.5t42.5 -106.5t57 -103.5 l-11 -8q-27 42 -78 78.5t-93 57t-74.5 53t-32.5 71.5z" />
<glyph unicode="&#xed;" horiz-adv-x="800" d="M20 0v12q49 0 80 7t50.5 19.5t29 39t12.5 55.5t3 80v655q0 63 -4.5 95.5t-23 58t-52.5 33.5t-95 8v14h588v-864q0 -43 1.5 -68.5t7.5 -51t17 -38.5t30.5 -24t47.5 -15t68 -4v-12h-760zM360 1219q29 41 56 104.5t42 107.5t44 77.5t69 33.5q33 0 55.5 -19t22.5 -48 q0 -32 -19 -57.5t-51.5 -46.5t-67.5 -41t-75 -51t-67 -67z" />
<glyph unicode="&#xee;" horiz-adv-x="800" d="M20 0v12q49 0 80 7t50.5 19.5t29 39t12.5 55.5t3 80v655q0 63 -4.5 95.5t-23 58t-52.5 33.5t-95 8v14h588v-864q0 -43 1.5 -68.5t7.5 -51t17 -38.5t30.5 -24t47.5 -15t68 -4v-12h-760zM123 1227l272 252l273 -252l-9 -10l-264 124l-266 -124z" />
<glyph unicode="&#xef;" horiz-adv-x="800" d="M20 0v12q49 0 80 7t50.5 19.5t29 39t12.5 55.5t3 80v655q0 63 -4.5 95.5t-23 58t-52.5 33.5t-95 8v14h588v-864q0 -43 1.5 -68.5t7.5 -51t17 -38.5t30.5 -24t47.5 -15t68 -4v-12h-760zM131 1309q0 40 28 69t68 29t68.5 -29t28.5 -69q0 -39 -29 -68t-68 -29t-67.5 29 t-28.5 68zM414 1309q0 40 28 69t68 29t68 -29t28 -69q0 -39 -28.5 -68t-67.5 -29t-67.5 29t-28.5 68z" />
<glyph unicode="&#xf0;" horiz-adv-x="1253" d="M57 539q0 149 77 276.5t207 201t280 73.5q49 0 103.5 -26t70.5 -52q-55 281 -240 477l-182 -180l-6 14l182 180q-120 120 -277 199l7 12q202 -33 364 -117l113 113l12 -12l-111 -109q145 -79 250.5 -198.5t164 -261.5t85.5 -287.5t27 -302.5q0 -113 -45.5 -215.5 t-121.5 -175.5t-179.5 -116.5t-216.5 -43.5q-150 0 -280 73.5t-207 201t-77 276.5zM494 240q0 -236 133 -236q135 0 135 236v602q0 235 -135 235q-133 0 -133 -235v-602z" />
<glyph unicode="&#xf1;" horiz-adv-x="1449" d="M20 0v12q49 0 80 7t50.5 19.5t29 39t12.5 55.5t3 80v649q0 51 -3 80t-12.5 55.5t-29 39t-50.5 19.5t-80 7v14h586v-182q37 96 122 145.5t198 49.5q129 0 213 -66q70 -56 93 -127.5t23 -181.5v-502q0 -51 3 -80t12.5 -55.5t29 -39t50.5 -19.5t80 -7v-12h-674v12 q58 0 74 44.5t16 156.5v547q0 100 -13 155.5t-33 73t-52 17.5q-11 0 -26 -3.5t-40.5 -21t-40.5 -47.5q-20 -38 -27.5 -83.5t-7.5 -160.5v-477q0 -112 16 -156.5t74 -44.5v-12h-676zM457 1221q11 37 23 64t32 54t50.5 41.5t70.5 14.5q44 0 150 -28t145 -28q28 0 46 10t44 37 h14q-69 -174 -182 -174q-34 0 -159 32t-138 32q-46 0 -86 -55h-10z" />
<glyph unicode="&#xf2;" horiz-adv-x="1261" d="M68 539q0 112 45.5 214.5t121.5 176t179.5 117t216.5 43.5t216.5 -43.5t179.5 -117t121.5 -176t45.5 -214.5t-45.5 -214.5t-121.5 -176t-179.5 -117t-216.5 -43.5t-216.5 43.5t-179.5 117t-121.5 176t-45.5 214.5zM387 1477q0 25 18.5 47t59.5 22q39 0 67.5 -33.5 t44 -77.5t42.5 -106.5t57 -103.5l-10 -8q-27 42 -78 78.5t-93.5 57t-75 53t-32.5 71.5zM498 238q0 -236 133 -236q135 0 135 236v602q0 235 -135 235q-133 0 -133 -235v-602z" />
<glyph unicode="&#xf3;" horiz-adv-x="1261" d="M68 539q0 112 45.5 214.5t121.5 176t179.5 117t216.5 43.5t216.5 -43.5t179.5 -117t121.5 -176t45.5 -214.5t-45.5 -214.5t-121.5 -176t-179.5 -117t-216.5 -43.5t-216.5 43.5t-179.5 117t-121.5 176t-45.5 214.5zM498 238q0 -236 133 -236q135 0 135 236v602 q0 235 -135 235q-133 0 -133 -235v-602zM610 1219q29 41 56 104.5t42 107.5t44 77.5t69 33.5q33 0 55.5 -19t22.5 -48q0 -32 -19 -57.5t-51.5 -46.5t-68 -41t-75.5 -51t-67 -67z" />
<glyph unicode="&#xf4;" horiz-adv-x="1261" d="M68 539q0 112 45.5 214.5t121.5 176t179.5 117t216.5 43.5t216.5 -43.5t179.5 -117t121.5 -176t45.5 -214.5t-45.5 -214.5t-121.5 -176t-179.5 -117t-216.5 -43.5t-216.5 43.5t-179.5 117t-121.5 176t-45.5 214.5zM381 1227l272 252l273 -252l-6 -10l-267 124l-266 -124z M498 238q0 -236 133 -236q135 0 135 236v602q0 235 -135 235q-133 0 -133 -235v-602z" />
<glyph unicode="&#xf5;" horiz-adv-x="1261" d="M68 539q0 112 45.5 214.5t121.5 176t179.5 117t216.5 43.5t216.5 -43.5t179.5 -117t121.5 -176t45.5 -214.5t-45.5 -214.5t-121.5 -176t-179.5 -117t-216.5 -43.5t-216.5 43.5t-179.5 117t-121.5 176t-45.5 214.5zM389 1221q11 37 23 64t32 54t50.5 41.5t70.5 14.5 q44 0 150 -28t145 -28q28 0 46 10t44 37h15q-69 -174 -183 -174q-34 0 -159 32t-138 32q-46 0 -86 -55h-10zM498 238q0 -236 133 -236q135 0 135 236v602q0 235 -135 235q-133 0 -133 -235v-602z" />
<glyph unicode="&#xf6;" horiz-adv-x="1261" d="M68 539q0 112 45.5 214.5t121.5 176t179.5 117t216.5 43.5t216.5 -43.5t179.5 -117t121.5 -176t45.5 -214.5t-45.5 -214.5t-121.5 -176t-179.5 -117t-216.5 -43.5t-216.5 43.5t-179.5 117t-121.5 176t-45.5 214.5zM406 1309q0 40 29 69t67 29q40 0 68 -29t28 -69 q0 -39 -28.5 -68t-67.5 -29q-38 0 -67 29.5t-29 67.5zM498 238q0 -236 133 -236q135 0 135 236v602q0 235 -135 235q-133 0 -133 -235v-602zM688 1309q0 40 29 69t69 29q38 0 67.5 -29.5t29.5 -68.5q0 -38 -29.5 -67.5t-67.5 -29.5q-40 0 -69 29t-29 68z" />
<glyph unicode="&#xf8;" horiz-adv-x="1304" d="M88 537q0 112 45.5 214t121.5 175.5t179.5 117t216.5 43.5q111 0 212 -41t179 -114l150 143l10 -8l-149 -145q77 -75 120.5 -174t43.5 -209q0 -149 -77 -276.5t-207 -201t-280 -73.5q-115 0 -219 44t-182 122l-152 -148l-8 6l154 148q-74 75 -115 173t-41 206zM518 236 q0 -236 133 -236q135 0 135 236v432l-268 -258v-174zM518 424l268 260v154q0 235 -135 235q-133 0 -133 -235v-414z" />
<glyph unicode="&#xf9;" horiz-adv-x="1447" d="M20 1063v14h588v-768q0 -43 0.5 -69t3 -56t7.5 -46.5t13.5 -31.5t22 -21.5t31.5 -6.5q29 0 47 14q60 38 77 125.5t17 265.5v385q0 106 -27 150t-108 45v14h549v-864q0 -64 4.5 -97t22.5 -59.5t52.5 -35.5t94.5 -9v-12h-592v203q-41 -108 -112.5 -161.5t-186.5 -53.5 q-132 0 -223 65q-69 49 -87.5 116.5t-18.5 217.5v481q0 63 -4.5 95.5t-23 58t-52.5 33.5t-95 8zM438 1477q0 25 18.5 47t59.5 22q39 0 67.5 -33.5t44 -77.5t42.5 -106.5t57 -103.5l-10 -8q-27 42 -78 78.5t-93.5 57t-75 53t-32.5 71.5z" />
<glyph unicode="&#xfa;" horiz-adv-x="1447" d="M20 1063v14h588v-768q0 -43 0.5 -69t3 -56t7.5 -46.5t13.5 -31.5t22 -21.5t31.5 -6.5q29 0 47 14q60 38 77 125.5t17 265.5v385q0 106 -27 150t-108 45v14h549v-864q0 -64 4.5 -97t22.5 -59.5t52.5 -35.5t94.5 -9v-12h-592v203q-41 -108 -112.5 -161.5t-186.5 -53.5 q-132 0 -223 65q-69 49 -87.5 116.5t-18.5 217.5v481q0 63 -4.5 95.5t-23 58t-52.5 33.5t-95 8zM678 1219q29 41 56 104.5t42 107.5t44 77.5t69 33.5q33 0 55.5 -19t22.5 -48q0 -32 -19 -57.5t-51.5 -46.5t-68 -41t-75.5 -51t-67 -67z" />
<glyph unicode="&#xfb;" horiz-adv-x="1447" d="M20 1063v14h588v-768q0 -43 0.5 -69t3 -56t7.5 -46.5t13.5 -31.5t22 -21.5t31.5 -6.5q29 0 47 14q60 38 77 125.5t17 265.5v385q0 106 -27 150t-108 45v14h549v-864q0 -64 4.5 -97t22.5 -59.5t52.5 -35.5t94.5 -9v-12h-592v203q-41 -108 -112.5 -161.5t-186.5 -53.5 q-132 0 -223 65q-69 49 -87.5 116.5t-18.5 217.5v481q0 63 -4.5 95.5t-23 58t-52.5 33.5t-95 8zM416 1227l274 252l273 -252l-9 -10l-264 124l-266 -124z" />
<glyph unicode="&#xfc;" horiz-adv-x="1447" d="M20 1063v14h588v-768q0 -43 0.5 -69t3 -56t7.5 -46.5t13.5 -31.5t22 -21.5t31.5 -6.5q29 0 47 14q60 38 77 125.5t17 265.5v385q0 106 -27 150t-108 45v14h549v-864q0 -64 4.5 -97t22.5 -59.5t52.5 -35.5t94.5 -9v-12h-592v203q-41 -108 -112.5 -161.5t-186.5 -53.5 q-132 0 -223 65q-69 49 -87.5 116.5t-18.5 217.5v481q0 63 -4.5 95.5t-23 58t-52.5 33.5t-95 8zM487 1309q0 40 28.5 69t68.5 29t68 -29t28 -69q0 -39 -28.5 -68t-67.5 -29t-68 29t-29 68zM770 1309q0 40 29 69t67 29q40 0 69.5 -29t29.5 -69q0 -38 -29.5 -67.5t-69.5 -29.5 q-38 0 -67 29.5t-29 67.5z" />
<glyph unicode="&#xfd;" horiz-adv-x="1738" d="M14 1591v13h959v-13q-95 0 -133.5 -14.5t-38.5 -54.5q0 -58 71 -187l240 -442l107 199q39 71 58 108.5t42.5 105.5t23.5 117q0 22 -4 41t-10.5 33t-17 26.5t-20 20.5t-24.5 15.5t-25 11.5t-27 8t-25 5t-23.5 3.5t-19.5 3.5v13h567v-13q-120 -9 -202.5 -75t-176.5 -240 l-213 -397v-629q0 -50 2 -79.5t10 -60t22.5 -46t41 -29t64 -18.5t92.5 -5h12v-12h-958v12h14q47 0 81 4.5t59.5 11.5t41.5 22.5t26 31.5t15 44.5t6.5 54.5t1.5 69v573l-409 629q-49 76 -104 106t-126 33zM932 1767q30 40 56 102.5t41 107.5t44.5 78.5t69.5 33.5q34 0 56 -19 t22 -49q0 -32 -20 -58.5t-53.5 -47t-69.5 -41t-75 -50.5t-63 -65z" />
<glyph unicode="&#xfe;" horiz-adv-x="1327" d="M72 -324q60 0 94.5 9t52.5 35.5t22.5 59.5t4.5 97v1483q0 64 -5.5 98.5t-25 58t-52 30.5t-91.5 7v15h587v-658q32 77 97.5 128t156.5 51q110 0 198 -75t134.5 -196t46.5 -262q0 -74 -13.5 -150.5t-45 -152.5t-76 -135t-113 -96t-149.5 -37q-42 0 -77.5 11t-56.5 23.5 t-43.5 38.5t-29.5 37t-23 39q-2 3 -3.5 5.5t-2.5 4.5v-264q0 -34 3 -60.5t7.5 -47t14.5 -36t18 -25.5t25 -17t29 -11t35.5 -5.5t39.5 -2t46 -0.5v-12h-805v12zM659 324q0 -106 25 -179q17 -48 43 -71t51 -23q94 0 94 262q2 150 2 252q0 243 -18.5 338.5t-95.5 95.5 q-39 0 -64 -47q-37 -72 -37 -223v-405z" />
<glyph unicode="&#xff;" horiz-adv-x="1386" d="M35 1063v14h719v-14q-64 -5 -80 -15q-21 -13 -21 -42q0 -30 58 -162l204 -477l70 200q74 218 74 314q0 58 -27 120q-11 23 -29.5 36.5t-31.5 16.5t-43 9v14h442v-14h-4q-61 0 -111.5 -28.5t-90.5 -84t-70.5 -121t-61.5 -157.5l-229 -692q-38 -119 -61 -167 q-103 -210 -302 -210q-114 0 -182 60t-68 159q0 86 55.5 152.5t147.5 66.5q79 0 139 -54.5t60 -146.5q0 -88 -55 -136t-131 -48q-41 0 -91 16q19 -29 59.5 -41t71.5 -12q114 0 193 76q100 95 154 305h-152l-416 887q-5 10 -17.5 38t-16.5 36t-15.5 28.5t-18.5 27t-20.5 19 t-27 16t-32.5 7.5t-42 4zM539 1309q0 40 28 69t68 29t68 -29t28 -69q0 -39 -28.5 -68t-67.5 -29t-67.5 29t-28.5 68zM821 1309q0 39 29.5 68.5t67.5 29.5q40 0 69 -29t29 -69q0 -39 -29 -68t-69 -29q-38 0 -67.5 29.5t-29.5 67.5z" />
<glyph unicode="&#x152;" horiz-adv-x="2504" d="M90 801q0 165 62.5 317t168.5 263.5t254 178t312 66.5q92 0 182 -22h1255v-615h-12q0 91 -24 177.5t-85 174.5t-153 154q-82 59 -166.5 77.5t-232.5 18.5v-731q146 0 228.5 53.5t133.5 182.5q6 19 13.5 66.5t7.5 92.5h14v-806h-14q0 44 -7.5 92.5t-13.5 64.5 q-51 131 -133.5 185.5t-228.5 54.5v-596q0 -69 3 -109t8.5 -68t21 -39.5t33 -15.5t50.5 -4q178 0 248 33q88 40 148.5 86.5t110.5 121.5t77.5 187.5t34.5 268.5h12v-711h-1321q-92 -25 -190 -25q-164 0 -312 67t-254 178.5t-168.5 263.5t-62.5 317zM590 664q0 -77 1.5 -135 t8.5 -132.5t19 -128t34 -108.5t52.5 -89.5t76.5 -56.5t103 -22t103 22t76.5 56.5t52.5 89.5t34 108.5t19 128t8.5 132.5t1.5 135v137v137q0 78 -1.5 136.5t-8.5 133t-19 128t-34 109.5t-52.5 90.5t-76.5 56.5t-103 22t-103 -22t-76.5 -56.5t-52.5 -90.5t-34 -109.5t-19 -128 t-8.5 -133t-1.5 -136.5v-137v-137z" />
<glyph unicode="&#x153;" horiz-adv-x="1921" d="M92 539q0 112 45.5 214.5t121.5 176t179.5 117t216.5 43.5q198 0 349 -125q139 125 346 125q323 0 442 -310q29 -79 29 -231h-615v-125q0 -103 10.5 -175.5t36.5 -129t73 -84t116 -27.5q79 0 146 39.5t111.5 104t72 141t36.5 156.5h15q-6 -49 -17.5 -97t-35.5 -109 t-68.5 -115.5t-104.5 -90.5q-80 -49 -231 -49q-234 0 -381 110q-145 -110 -330 -110q-113 0 -216.5 43.5t-179.5 117t-121.5 176t-45.5 214.5zM522 238q0 -236 133 -236q136 0 136 236v602q0 235 -136 235q-133 0 -133 -235v-602zM1206 563h240q6 120 6 262 q0 100 -10.5 153.5t-50.5 88.5q-10 10 -45 10q-84 0 -112 -102.5t-28 -351.5v-60z" />
<glyph unicode="&#x178;" horiz-adv-x="1738" d="M14 1591v13h959v-13q-95 0 -133.5 -14.5t-38.5 -54.5q0 -58 71 -187l240 -442l107 199q39 71 58 108.5t42.5 105.5t23.5 117q0 22 -4 41t-10.5 33t-17 26.5t-20 20.5t-24.5 15.5t-25 11.5t-27 8t-25 5t-23.5 3.5t-19.5 3.5v13h567v-13q-120 -9 -202.5 -75t-176.5 -240 l-213 -397v-629q0 -50 2 -79.5t10 -60t22.5 -46t41 -29t64 -18.5t92.5 -5h12v-12h-958v12h14q47 0 81 4.5t59.5 11.5t41.5 22.5t26 31.5t15 44.5t6.5 54.5t1.5 69v573l-409 629q-49 76 -104 106t-126 33zM774 1858q0 39 28.5 67.5t67.5 28.5q40 0 68.5 -29t28.5 -67 q0 -40 -28.5 -69.5t-68.5 -29.5q-39 0 -67.5 29.5t-28.5 69.5zM1057 1858q0 39 28.5 67.5t67.5 28.5t67.5 -28.5t28.5 -67.5q0 -40 -28.5 -69.5t-67.5 -29.5t-67.5 29.5t-28.5 69.5z" />
<glyph unicode="&#x2c6;" horiz-adv-x="638" d="M45 1352l274 252l273 -252l-8 -9l-265 123l-266 -123z" />
<glyph unicode="&#x2dc;" horiz-adv-x="747" d="M88 1430q11 37 23 64t32 54t50.5 41.5t70.5 14.5q44 0 150 -28t145 -28q28 0 46 10t44 37h15q-69 -174 -183 -174q-34 0 -159 32t-138 32q-46 0 -86 -55h-10z" />
<glyph unicode="&#x2000;" horiz-adv-x="1046" />
<glyph unicode="&#x2001;" horiz-adv-x="2093" />
<glyph unicode="&#x2002;" horiz-adv-x="1046" />
<glyph unicode="&#x2003;" horiz-adv-x="2093" />
<glyph unicode="&#x2004;" horiz-adv-x="697" />
<glyph unicode="&#x2005;" horiz-adv-x="523" />
<glyph unicode="&#x2006;" horiz-adv-x="348" />
<glyph unicode="&#x2007;" horiz-adv-x="348" />
<glyph unicode="&#x2008;" horiz-adv-x="261" />
<glyph unicode="&#x2009;" horiz-adv-x="418" />
<glyph unicode="&#x200a;" horiz-adv-x="116" />
<glyph unicode="&#x2010;" horiz-adv-x="636" d="M115 516v96h403v-96h-403z" />
<glyph unicode="&#x2011;" horiz-adv-x="636" d="M115 516v96h403v-96h-403z" />
<glyph unicode="&#x2012;" horiz-adv-x="636" d="M115 516v96h403v-96h-403z" />
<glyph unicode="&#x2013;" horiz-adv-x="1849" d="M117 516v96h1614v-96h-1614z" />
<glyph unicode="&#x2014;" horiz-adv-x="2269" d="M117 516v96h2035v-96h-2035z" />
<glyph unicode="&#x2018;" horiz-adv-x="647" d="M92 1212q0 70 21.5 141.5t62.5 123.5q88 113 285 127v-15q-35 -4 -61 -8t-61.5 -14.5t-62 -25t-53.5 -39.5t-47 -58q-18 -28 -23.5 -61t-5.5 -93q31 29 78.5 46.5t98.5 17.5q101 0 165 -62.5t64 -140.5q0 -80 -60 -138.5t-155 -58.5q-26 0 -54.5 5.5t-64 22.5t-62.5 43.5 t-46 75t-19 111.5z" />
<glyph unicode="&#x2019;" horiz-adv-x="647" d="M92 1407q0 80 60 138.5t155 58.5q26 0 54.5 -5.5t64 -22.5t62.5 -43.5t46 -75t19 -111.5q0 -70 -21.5 -141.5t-62.5 -123.5q-88 -113 -285 -127v15q35 4 61 8t61.5 14.5t62 25t53.5 39.5t47 58q18 28 23.5 61t5.5 93q-31 -29 -78 -46.5t-98 -17.5q-101 0 -165.5 62.5 t-64.5 140.5z" />
<glyph unicode="&#x201a;" horiz-adv-x="647" d="M92 201q0 80 60 138t155 58q26 0 54.5 -5.5t64 -22.5t62.5 -43.5t46 -75t19 -111.5q0 -70 -21.5 -141t-62.5 -123q-88 -113 -285 -127v14q45 5 78 11.5t74 21.5t75 43.5t58 69.5q18 28 23.5 60.5t5.5 92.5q-66 -63 -176 -63q-101 0 -165.5 62.5t-64.5 140.5z" />
<glyph unicode="&#x201c;" horiz-adv-x="1140" d="M94 1212q0 70 21.5 141.5t62.5 123.5q88 113 285 127v-15q-35 -4 -61 -8t-61.5 -14.5t-62 -25t-53.5 -39.5t-47 -58q-18 -27 -23 -60t-5 -94q31 29 78 46.5t98 17.5q101 0 165 -62.5t64 -140.5q0 -80 -60 -138.5t-155 -58.5q-26 0 -54.5 5.5t-64 22.5t-62.5 43.5t-46 75 t-19 111.5zM600 1212q0 70 21.5 141.5t62.5 123.5q88 113 285 127v-15q-35 -4 -61 -8t-61.5 -14.5t-62 -25t-53.5 -39.5t-47 -58q-18 -28 -23.5 -61t-5.5 -93q31 29 78 46.5t98 17.5q101 0 165.5 -62.5t64.5 -140.5q0 -80 -60 -138.5t-155 -58.5q-26 0 -54.5 5.5t-64 22.5 t-62.5 43.5t-46 75t-19 111.5z" />
<glyph unicode="&#x201d;" horiz-adv-x="1138" d="M78 1407q0 80 60 138.5t155 58.5q26 0 54.5 -5.5t64 -22.5t62.5 -43.5t46 -75t19 -111.5q0 -70 -21.5 -141.5t-62.5 -123.5q-88 -113 -285 -127v15q35 4 61 8t61.5 14.5t62 25t53.5 39.5t47 58q18 27 23 60t5 94q-31 -29 -78 -46.5t-98 -17.5q-101 0 -165 62.5t-64 140.5 zM582 1407q0 80 60 138.5t155 58.5q26 0 54 -5.5t63.5 -22.5t63 -43.5t46 -75t18.5 -111.5q0 -70 -21.5 -141.5t-62.5 -123.5q-88 -113 -284 -127v15q45 5 78 11.5t74 21t74.5 43t57.5 69.5q18 28 23.5 61t5.5 93q-31 -29 -78 -46.5t-98 -17.5q-101 0 -165 62.5t-64 140.5z " />
<glyph unicode="&#x201e;" horiz-adv-x="1138" d="M78 201q0 80 60 138t155 58q26 0 54.5 -5.5t64 -22.5t62.5 -43.5t46 -75t19 -111.5q0 -70 -21.5 -141t-62.5 -123q-88 -113 -285 -127v14q45 5 78 11.5t74 21.5t75 43.5t58 69.5q18 27 23 59.5t5 93.5q-66 -63 -176 -63q-101 0 -165 62.5t-64 140.5zM582 201q0 80 60 138 t155 58q26 0 54 -5.5t63.5 -22.5t63 -43.5t46 -75t18.5 -111.5q0 -70 -21.5 -141t-62.5 -123q-88 -113 -284 -127v14q96 10 167 39.5t117 106.5q18 28 23.5 60.5t5.5 92.5q-66 -63 -176 -63q-101 0 -165 62.5t-64 140.5z" />
<glyph unicode="&#x2022;" horiz-adv-x="614" d="M82 883q0 82 65.5 140t157.5 58t158.5 -58t66.5 -140q0 -80 -66.5 -138.5t-158.5 -58.5t-157.5 58.5t-65.5 138.5z" />
<glyph unicode="&#x202f;" horiz-adv-x="418" />
<glyph unicode="&#x2039;" horiz-adv-x="557" d="M23 518l288 356h162l-293 -356l293 -356h-162z" />
<glyph unicode="&#x203a;" horiz-adv-x="552" d="M80 162l293 356l-293 356h162l288 -356l-288 -356h-162z" />
<glyph unicode="&#x205f;" horiz-adv-x="523" />
<glyph unicode="&#x20ac;" horiz-adv-x="1198" d="M53 633v20h107q-2 27 -2 84q0 83 8 148h-109v20h111q14 99 43 188.5t76.5 166.5t108.5 133t142.5 88t174.5 32q76 0 176 -30.5t129 -30.5q43 0 59 55h15v-381h-13q-8 78 -64 165t-139.5 146.5t-162.5 59.5q-32 0 -58.5 -18t-43.5 -44t-30 -64.5t-19.5 -71.5t-11 -73 t-5.5 -60t-2 -42q-6 -100 -8 -219h464v-20h-464v-148v-84h419v-20h-419q1 -35 2 -74.5t2 -71.5t2 -58.5t1 -42.5l1 -15q6 -375 170 -375q79 0 162.5 59.5t139.5 146.5t64 165h13v-381h-15q-16 55 -59 55q-29 0 -129 -30.5t-176 -30.5q-99 0 -184.5 34.5t-148 95 t-109.5 143.5t-73.5 178.5t-35.5 201.5h-109z" />
<glyph unicode="&#x2122;" horiz-adv-x="1050" d="M49 518q0 71 19 147.5t62 155t104.5 140.5t155.5 101.5t206 39.5q103 0 184 -37l92 219h23l-96 -227q33 -16 61.5 -37t61.5 -55.5t52 -86.5t19 -114q0 -83 -60 -147t-157 -64q-28 0 -53 5t-44 14t-31.5 16t-24.5 16t-13 10l-186 -434q9 -72 60 -113.5t132 -41.5 q86 0 159.5 45t117 110t68 131t24.5 115l16 -2q-11 -185 -139.5 -310.5t-316.5 -125.5q-101 0 -185 37l-102 -242h-22l104 250q-133 62 -212 200.5t-79 284.5zM395 516q0 -130 23 -301l180 420q-1 1 -5.5 9.5t-5.5 11t-4.5 10.5t-5 11.5t-4 11.5t-3.5 14t-2.5 14.5t-2 17.5 t-0.5 19q0 23 6.5 49t22.5 58.5t50 58t81 34.5h8l37 88q-62 25 -106 25q-35 0 -70 -15t-71.5 -54t-64.5 -99t-45.5 -159t-17.5 -224zM754 956q50 0 87 -17.5t74 -74.5q-25 120 -129 170z" />
<glyph unicode="&#x25fc;" horiz-adv-x="1075" d="M0 0v1075h1075v-1075h-1075z" />
</font>
</defs>
</svg>
